<?xml version="1.0" encoding="UTF-8"?><svg id="Layer_1" xmlns="http://www.w3.org/2000/svg" width="520" height="520" viewBox="0 0 520 520"><defs><style>.cls-1{opacity:.3;}.cls-1,.cls-2{fill:#231f20;stroke-width:0px;}.cls-3{opacity:.2;}.cls-4{opacity:.25;}.cls-5{opacity:.35;}</style></defs><path class="cls-2" d="M416.15,439.02c.19,0,.37.09.54.15.17.04.32.07.47.11.09.03.08.12-.03.14-.21.04-.43.07-.64.22-.06.07-.62.24-1.26.44-.32.11-.65.23-.95.33-.3.09-.57.16-.75.22-.35.11-.7.21-1.05.29-.35.07-.7.07-1.06.1-1.43.07-2.87.2-4.3.22-.32,0-.64-.02-.96-.08-1.09-.18-2.18-.2-3.27-.18-.18,0-.37-.01-.55.07-.29.15-3.26.06-3.64-.03-.95-.2-1.9-.35-2.84-.58-.13-.03-.28-.01-.4-.12-.28-.25-.57-.24-.86-.28-.41-.06-.81-.13-1.21-.23-.2-.05-.39-.18-.58-.29-.17-.1-.06-.39,0-.42.19-.08.05-.23.04-.36,0-.04,0-.1,0-.13.02-.06,2.38-.56,2.63-.57.03,0,.9-.05,1.8-.1.9-.02,1.85-.05,2.04-.07.2-.02.4.04.6.08.09.03,2.81-.13,2.91-.13.56.04,1.12-.05,1.68.16.11.04.22.03.34.03.96-.03,1.93.04,2.89.09.49.04.99.01,1.48.03.09,0,.18.04.27.05.11.02.22.05.34.05,1.17.01,2.34.03,3.51.13.13,0,.53.09.92.18.4.11.8.21.96.22.18.03.76.28.91.26Z"/><path class="cls-2" d="M188.17,208.77c.97,2.82,2.73,5.19,5.1,7,.29.22.83.24,1.16.15.35-.1.73-.36.9-.69.18-.35.28-.77.15-1.16s-.36-.65-.69-.9c.12.09.2.16.03.02-.06-.05-.13-.1-.19-.15-.11-.09-.22-.19-.33-.29-.22-.2-.43-.4-.64-.61-.22-.22-.43-.45-.63-.69-.09-.11-.19-.23-.28-.34-.12-.14.19.25.03.03-.05-.07-.1-.13-.14-.2-.35-.49-.67-1.01-.95-1.54-.14-.26-.26-.53-.38-.79-.14-.3.09.23.02.04-.03-.08-.06-.15-.09-.23-.06-.15-.11-.31-.17-.46-.26-.74-1.04-1.31-1.85-1.05-.73.24-1.32,1.05-1.05,1.85h0Z"/><path class="cls-2" d="M86.31,440.87l.28-.28c.18-.17.31-.37.39-.6.12-.22.17-.46.16-.72,0-.26-.04-.5-.16-.72-.08-.23-.2-.43-.39-.6l-.38-.29c-.29-.17-.61-.25-.95-.26l-.5.07c-.32.09-.59.25-.83.48l-.28.28c-.18.17-.31.37-.39.6-.12.22-.17.46-.16.72,0,.26.04.5.16.72.08.23.2.43.39.6l.38.29c.29.17.61.25.95.26l.5-.07c.32-.09.59-.25.83-.48h0Z"/><path class="cls-2" d="M138.76,432.18h-.17c-2.57,0-2.58,4,0,4h.17c2.57,0,2.58-4,0-4h-.17c-2.57,0-2.58,4,0,4h.17c2.57,0,2.58-4,0-4h0Z"/><path class="cls-2" d="M154.44,440.49h-.28c-.26,0-.5.04-.72.16-.23.08-.43.2-.6.39-.18.17-.31.37-.39.6-.12.22-.17.46-.16.72l.07.5c.09.32.25.59.48.83l.38.29c.29.17.61.25.95.26h.28c.26,0,.5-.04.72-.16.23-.08.43-.2.6-.39.18-.17.31-.37.39-.6.12-.22.17-.46.16-.72l-.07-.5c-.09-.32-.25-.59-.48-.83l-.38-.29c-.29-.17-.61-.25-.95-.26h0Z"/><g class="cls-4"><path class="cls-2" d="M169.53,233.93c.46,1.57.78,3.26.43,5.07-.15.64-.33,1.26-.64,1.82-1.14,1.96-2.94,3.17-4.74,4.02-.81.37-1.62.75-2.46.99-1.07.33-2.17.65-3.31.56-.35-.02-.31-.15-.06-.38.26-.22.71-.64,1.28-.83,1.02-.35,1.97-.84,2.92-1.28.95-.44,1.86-.95,2.7-1.54,1.02-.7,1.74-1.79,2.12-2.88.42-1.19.33-2.53-.04-3.91-.25-.84-.53-1.68-.93-2.48-.59-1.21-1.29-2.41-2.17-3.43-.68-.8-1.52-1.42-2.36-1.93-.18-.12-.38-.21-.56-.32-.65-.43-.77-.62-.63-1.34.03-.16.05-.32.09-.48.13-.51.67-.73,1.41-.49,2.11.81,3.64,2.55,4.85,4.35.9,1.37,1.6,2.85,2.13,4.42l-.05.02Z"/></g><path class="cls-2" d="M187.29,183.14c1.44,2.19,3.21,4.36,5.77,5.24,2.09.71,4.91.77,6.82-.46.68-.44.96-1.33.54-2.05-.4-.68-1.37-.98-2.05-.54-.09.05-.17.1-.26.16-.06.03-.33.15-.04.03-.18.07-.38.13-.57.18-.11.03-.22.05-.34.08-.03,0-.4.06-.22.04s-.24.02-.23.02c-.1,0-.2.01-.29.01-.25,0-.5,0-.75,0-.12,0-.25-.02-.37-.03-.05,0-.38-.05-.12-.01-.44-.07-.88-.17-1.31-.32-.08-.03-.17-.06-.25-.09-.17-.06.19.11-.05-.03-.22-.12-.44-.24-.65-.38-.41-.27-.69-.51-1.08-.9-.81-.8-1.33-1.52-1.95-2.46-.44-.68-1.33-.96-2.05-.54-.67.39-.99,1.37-.54,2.05h0Z"/><path class="cls-2" d="M188.29,208.77c.9,1.67,2.19,3.3,3.97,4.1,1.27.57,2.61.73,3.99.68.78-.03,1.54-.67,1.5-1.5s-.66-1.53-1.5-1.5c-.49.02-.98.02-1.46-.03-.14-.01-.42-.1.1.02-.06-.01-.12-.02-.18-.03-.12-.02-.25-.05-.37-.08-.15-.04-.3-.08-.44-.13-.06-.02-.13-.04-.19-.07-.32-.12.18.09.07.03-.29-.14-.57-.28-.83-.46-.07-.05-.15-.12-.22-.16.14.07.24.2.05.03-.14-.12-.28-.25-.42-.38-.14-.14-.28-.29-.41-.44-.06-.07-.13-.15-.19-.23-.19-.23.18.25-.05-.06-.3-.42-.57-.87-.82-1.32-.37-.69-1.39-.97-2.05-.54-.7.45-.94,1.31-.54,2.05h0Z"/><path class="cls-2" d="M186.91,174.7c.31-.36.62-.7.97-1.02.15-.14.31-.28.47-.41.22-.18-.12.08.02-.02.08-.05.15-.11.23-.16.29-.2.6-.38.92-.53.05-.02.32-.12.09-.05s.07-.02.09-.03c.15-.06.3-.11.46-.15.3-.09.61-.16.92-.21.06-.01.12-.02.19-.03.33-.06-.36.04-.03,0,.14-.01.28-.03.42-.04.67-.06,1.35-.09,2.03-.13.78-.05,1.54-.65,1.5-1.5-.03-.77-.66-1.56-1.5-1.5-1.47.1-2.99.11-4.41.55-1.79.55-3.28,1.71-4.49,3.11-.51.59-.63,1.54,0,2.12.56.52,1.58.64,2.12,0h0Z"/><g class="cls-5"><path class="cls-2" d="M380.63,313.94c1.95-.82,3.96-1.17,5.92-1.41,1.96-.22,3.89-.27,5.79-.33,1.38-.04,2.75-.14,4.1-.22,2.38-.14,4.74-.37,6.93-1.09,2.18-.7,4.25-1.89,5.82-3.52.71-.72,1.31-1.58,1.82-2.49.52-.9.95-1.86,1.29-2.84.87-2.52,1.4-5.21,1.23-7.89-.06-.83.13-.78.48-.09.34.68.79,2.08.73,3.75-.1,2.95-.9,5.86-2.35,8.52-.74,1.31-1.66,2.61-2.91,3.59-1.19.97-2.53,1.76-3.93,2.33-3.37,1.35-7.03,1.9-10.52,2.09-3.83.24-7.64.17-11.17,1.11-2.14.58-4.21,1.53-5.59,3.14-1.03,1.21-1.69,2.74-1.9,4.38-.11.82-.16,1.66-.09,2.51.01.87.18,1.62.42,2.41.82,2.43,2.54,4.47,4.37,6.32.41.41.84.78,1.26,1.19.79.74,1.3,1.25,1.59,1.68.28.45.36.81.32,1.22-.02.19,0,.4-.06.55-.08.27-.36.33-.81.22-.45-.11-1.06-.39-1.73-.91-1.98-1.52-3.9-3.33-5.46-5.59-.78-1.13-1.47-2.39-1.94-3.8-.24-.7-.41-1.45-.51-2.22-.06-.73-.14-1.41-.11-2.15-.02-1.07.15-2.17.4-3.26.31-1.09.76-2.16,1.4-3.13.66-.95,1.45-1.81,2.35-2.5.9-.66,1.86-1.24,2.85-1.64l.03.06Z"/></g><g class="cls-5"><path class="cls-2" d="M343.88,293.8c1.42-2.26,3.16-4.37,5.26-6.16,1.07-.87,2.22-1.67,3.48-2.31,1.22-.58,2.41-1.12,3.7-1.55,2.53-.88,5.34-1.4,8.13-1.08,2.8.25,5.34,1.32,7.63,2.21.85.33,1.67.62,2.5.88.41.12.82.22,1.23.33.46.11.95.22,1.4.35,1.85.49,3.56,1.11,5.21,1.46,2.9.72,5.76.25,8.4-1.2,2.62-1.38,4.68-3.63,6-6.37.67-1.36,1.19-2.83,1.62-4.34.41-1.5.82-3.11,1.05-4.59.49-3.03.02-6.16-.28-9.43-.13-1.45-.22-2.93-.19-4.41.03-1.45.06-2.89.15-4.36.17-2.91.73-6.02,2.35-8.64.52-.83,1.11-1.61,1.76-2.32.32-.36.72-.71,1.09-1.05.4-.29.79-.61,1.21-.86,1.66-1.04,3.48-1.74,5.33-2.2,1.86-.45,3.77-.67,5.69-.56.48.06.96.05,1.43.17.47.14.94.21,1.4.41.45.18.91.32,1.33.58l.63.34c.2.13.39.29.58.43.5.33.74.7.93.89.18.2.25.3.22.3-.03,0-.15-.09-.37-.24-.22-.15-.51-.4-.97-.56-.85-.43-2.23-.64-3.8-.48-1.56.07-3.37.23-5.29.67-1.7.38-3.36.98-4.83,1.8-.37.2-.7.44-1.05.66-.31.25-.64.49-.92.75-.52.5-1.1,1.17-1.55,1.85-.93,1.37-1.61,2.84-1.98,4.48-.38,1.63-.51,3.4-.58,5.23l-.07,2.77c-.01.88.02,1.77.08,2.67.12,1.8.36,3.64.51,5.58.15,1.93.16,3.98-.16,5.98-.07.5-.18,1-.28,1.49l-.34,1.4c-.23.93-.5,1.87-.79,2.81-.71,2.24-1.67,4.5-3.09,6.54-1.43,2.03-3.33,3.8-5.55,4.99-2.16,1.21-4.71,2.02-7.3,1.95-2.59-.04-4.96-.83-7.12-1.48-1.22-.38-2.29-.62-3.66-.98-1.29-.38-2.51-.85-3.69-1.31-2.35-.93-4.6-1.69-6.93-1.78-2.32-.08-4.67.44-6.93,1.33-.57.19-1.12.49-1.68.72-.57.24-1.08.53-1.59.81-1,.62-1.97,1.31-2.83,2.14-2.16,2.01-3.89,4.53-5.28,7.21-1.37,2.7-2.44,5.57-3.06,8.53-.98,4.49-1.11,9.18-.35,13.74.76,4.55,2.39,8.95,4.83,12.81,1.89,3,4.32,5.62,6.85,8.13,2.54,2.5,5.21,4.88,7.88,7.3,1.18,1.07,2.35,2.09,3.53,3.2,4.35,4.11,5.41,5.91,5.54,7.43.03.35.1.77.05,1.01-.25.81-1.84-.85-5-3.72-4.63-4.33-9.77-8.55-14.58-13.42-2.4-2.43-4.75-5.06-6.71-8.12-1.96-3.03-3.41-6.37-4.42-9.83-1.48-5.15-1.88-10.6-1.18-15.92.71-5.33,2.5-10.49,5.34-15.08l.07.03Z"/></g><path class="cls-2" d="M63.81,450.14c-.21.04-.4,0-.58-.08-.18-.12-.36-.29-.52-.41-.1-.08-.1-.27.02-.35.22-.15.45-.38.68-.46.14-.07,2.43-.71,3.22-.81.76-.17,1.52-.24,2.28-.31l2.31-.18,2.31-.05c.34,0,.68.02,1.02.07,1.17.18,2.34.19,3.5.12.19-.01.39,0,.58-.1.31-.16,3.46-.23,3.87-.17,1.02.16,2.03.25,3.05.35.15.02.3-.03.43.08.32.26.63.2.94.2.44.01.87.02,1.31.09.22.04.44.2.66.31.2.1.12.5.06.55-.19.14-.02.32.01.48.01.06.02.13.02.17,0,.14-2.5,1.01-2.78,1-.07,0-3.75.36-4.19.4-.22.03-.44-.03-.66-.06-.11,0-3.06.23-3.17.24-.61-.03-1.22.08-1.83-.16-.12-.05-.24-.03-.37-.03-1.05.05-2.1-.04-3.14-.1-.53-.03-1.07,0-1.6,0-.1,0-.19-.04-.29-.06-.12-.03-.24-.06-.36-.07-1.26-.03-2.52-.19-3.78-.12-.29,0-1.68-.23-2.01-.27-.19-.01-.81-.35-.98-.3Z"/><path class="cls-2" d="M116.64,448.62c-.2.03-.38-.02-.55-.12-.17-.12-.32-.3-.46-.45-.09-.1-.06-.33.05-.39.23-.12.46-.29.69-.35.07-.02.66-.12,1.33-.22.67-.05,1.4-.11,1.79-.14.73-.07,1.46-.07,2.19-.06l4.44.05c.33,0,.66.03.98.09,1.12.18,2.24.22,3.37.2.19,0,.38.02.56-.06.3-.13,3.36-.07,3.75,0,.97.19,1.95.33,2.93.5.14.02.29,0,.41.11.29.27.59.23.89.26.42.04.84.14,1.26.25.21.06.41.21.6.34.18.11.06.46,0,.5-.19.11-.05.28-.04.43,0,.05,0,.12,0,.16-.02.08-2.48.75-2.74.68-.03,0-.93,0-1.88,0-.94,0-1.93,0-2.13,0-.21.01-.42-.06-.63-.11-.11,0-2.93-.02-3.05-.02-.58-.06-1.17-.02-1.75-.26-.11-.05-.23-.04-.35-.05-1.01-.03-2.01-.17-3.02-.28-.51-.06-1.03-.06-1.54-.1-.09,0-.18-.04-.28-.06-.12-.02-.23-.06-.35-.06-1.22-.05-2.43-.23-3.65-.22-.28,0-1.61-.29-1.93-.28-.18-.02-.76-.38-.92-.35Z"/><path class="cls-2" d="M214.9,443.64c.43,0,.8.36,1.12.51.1.05.09.18-.03.24-.24.11-.47.27-.72.44-.07.1-.7.27-1.41.47-.71.18-1.51.29-1.91.39-.78.17-1.56.25-2.35.32-1.59.08-3.18.11-4.77.15-.35,0-.71-.01-1.06-.06-1.21-.17-2.41-.16-3.62-.09-.2.01-.41,0-.6.1-.32.15-3.58.27-4,.17-1.05-.2-2.1-.32-3.16-.45-.15-.02-.31.02-.45-.09-.33-.24-.65-.19-.97-.2-.45-.02-.9-.04-1.36-.11-.22-.04-.45-.16-.68-.26-.2-.09-.12-.42-.05-.46.2-.12.02-.27,0-.4,0-.05-.02-.11-.01-.15,0-.04.65-.27,1.34-.51.68-.21,1.4-.43,1.55-.44.07,0,3.86-.47,4.32-.52.23-.03.46.03.68.07.12,0,3.16-.21,3.28-.22.63.03,1.26-.07,1.89.16.12.05.25.03.38.03,1.08-.04,2.17.05,3.25.11.55.03,1.1,0,1.66,0,.1,0,.2.04.3.05.13.02.25.05.38.05,1.31-.05,2.61.15,3.92.1.3.01,1.74.25,2.08.28.19.02.84.37,1.01.33Z"/><g class="cls-4"><path class="cls-2" d="M254.09,263.87c-2.18,3.31-4.5,6.54-7,9.66l-1.36,1.71c-.48.56-.96,1.11-1.45,1.65-.42.49-.91.93-1.38,1.38-.49.44-.91.93-1.47,1.32-.53.41-1.06.83-1.6,1.21-.55.34-1.09.7-1.66,1.02-2.24,1.3-4.59,2.39-7,3.28-2.14.78-4.33,1.46-6.54,1.98-1.42.33-2.85.61-4.31.78-1.45.17-2.93.21-4.38-.07-.9-.42-.76-.29,0-.73.38-.24.9-.41,1.52-.68.62-.25,1.34-.46,2.13-.54,5.6-.7,11.05-2.5,16.18-5.03,1.52-.77,3.05-1.71,4.3-2.81.66-.53,1.24-1.22,1.87-1.82.61-.63,1.17-1.33,1.76-1.98,2.52-2.96,4.82-6.17,7.02-9.43l1.99-3.04,1.92-3.09c1.88-3.16,3.76-6.35,5.41-9.6,1.28-2.53,2.35-5.11,3.4-7.69.23-.57.46-1.12.7-1.69.22-.52.41-.96.59-1.31.2-.35.39-.61.55-.83.32-.44.6-.66.92-.82.14-.07.29-.18.41-.21.2-.05.29.16.31.62,0,.45.02,1.19-.17,2.04-.18.62-.37,1.24-.55,1.87-.21.61-.43,1.23-.64,1.85-.47,1.23-1.02,2.42-1.56,3.63-1.12,2.4-2.36,4.78-3.66,7.13-1.92,3.5-4.03,6.91-6.19,10.28l-.05-.03Z"/></g><path class="cls-2" d="M257.11,209.99c-.2-.49-.31-.94-.41-1.35-.04-.15-.13-.27-.16-.4-.14-.5-.28-.88-.64-1.2-.16-.12-.33-.23-.51-.3-.24-.07-.45-.09-.75-.09-.09,0-.16-.1-.16-.29,0-.18.09-.48.34-.61.44-.21.96-.26,1.41-.16.42.18.77.47,1.01.82.3.43.62.79.82,1.18.22.43.37.85.52,1.23.09.23.19.46.31.64.17.26.41.53.7.64.23.08.49,0,.6-.12.03-.03.05-.05.07-.06.07-.02.14.09.42.52l.2.28c.23.31.28.68.01.92-.39.38-.99.47-1.46.38-.49-.08-.91-.29-1.26-.56-.52-.38-.91-1-1.12-1.46l.04-.02Z"/><path class="cls-2" d="M242.36,221.59c-.65.45-1.25,1.02-1.82,1.64-.21.23-.37.5-.57.74-.72.85-1.38,1.79-2.06,2.74-.3.42-.55.87-.8,1.32-.27.6-.72,1.1-1.19,1.59-.16.15-.28.05-.38-.21-.09-.25-.21-.68-.14-1.07.09-.71.47-1.27.76-1.87.31-.59.66-1.17,1.1-1.7.52-.65.88-1.44,1.38-2.14.55-.77,1.2-1.5,1.94-2.13.45-.39.95-.75,1.47-1.05.78-.47,1.65-.79,2.53-1.04.68-.19,1.38-.4,2.14-.43.17,0,.33.01.49.04.3.08.5.16.6.32.1.17.12.34.11.56,0,.1,0,.19-.02.28-.03.15-.11.26-.24.37-.13.12-.3.24-.47.27-.52.17-.96.25-1.43.34-.46.1-.93.22-1.39.4-.69.26-1.38.61-1.99,1.08l-.03-.04Z"/><path class="cls-2" d="M244.64,218.91c-.41-.36-.82-.8-1.14-1.31-.33-.52-.54-1.13-.63-1.67-.08-.4-.14-.77-.13-1.13.03-1.27.23-2.5.53-3.68.15-.52.29-1.04.46-1.54.21-.65.48-1.28.86-1.84.12-.18.2-.1.25.11.05.21.11.58.05.94-.23,1.31-.22,2.57-.45,3.83-.12.76.04,1.57.16,2.31.12.82.33,1.39.89,1.93.33.33.76.63,1.22.9.71.43,1.44.91,2.2,1.28.6.28,1.21.5,1.81.76.13.06.27.1.39.17.48.24.52.52.41.96-.03.1-.04.21-.08.31-.11.32-.45.48-.89.47-.61-.09-1.21-.23-1.8-.41-.59-.18-1.12-.49-1.67-.76-.8-.43-1.6-.86-2.47-1.58l.03-.04Z"/><g class="cls-4"><path class="cls-2" d="M131.62,446.59c-1.25-.5-2.49-1.02-3.73-1.91-.15-.1-.31-.23-.46-.37-.15-.12-.31-.27-.46-.44-.29-.28-.64-.8-.75-1.15-.37-.8-.46-1.5-.58-2.21-.12-1.01-.21-1.99-.2-2.96.14-3.4.72-6.67,1.45-9.9l.48-2.15c.14-.72.34-1.43.56-2.13.29-.9.55-1.8.93-2.68.18-.44.45-.84.71-1.25.25-.41.55-.8.85-1.17.38-.46.39-.35.36.19-.01.27-.05.63-.03,1.08.02.46.02.96-.01,1.49-.05.46-.2.89-.28,1.34l-.26,1.35c-.08.45-.14.91-.24,1.36-.13.44-.23.89-.34,1.33-.45,1.78-.87,3.59-1.26,5.42-.47,2.18-.54,4.53-.48,6.73.04,1.18.15,2.47.55,3.29.13.32.53.68,1,.99.47.31.99.6,1.54.85,1.36.63,2.83,1.12,4.32,1.54,2.26.64,4.58,1.18,6.9,1.55,1.8.31,3.61.38,5.4.57.39.04.78.07,1.18.12.73.11,1.21.19,1.54.37.32.22.5.43.64.68.06.11.15.22.19.31.06.16-.06.29-.35.46-.29.16-.75.4-1.31.4-1.67.12-3.38.15-5.09-.05-1.71-.16-3.44-.42-5.15-.8-2.55-.55-5.09-1.24-7.61-2.18l.02-.06Z"/></g><path class="cls-2" d="M135.31,419.8c-.85,0-1.63,0-2.37.21-.27.06-.49.24-.76.35-.95.41-1.96,1.13-2.84,1.86-.4.33-.71.74-.98,1.15-.19.26-.25.58-.51.8-.22.25-.47.5-.7.78-.16.17-.26.13-.43-.11-.16-.23-.5-.72-.56-1.26,0-.22-.06-.48.02-.68.07-.2.15-.39.24-.58.18-.38.38-.74.62-1.08.23-.34.49-.65.77-.94.3-.27.63-.5.96-.71.8-.48,1.47-1.22,2.4-1.71,1.04-.52,2.17-.78,3.23-.83.65-.03,1.29-.01,1.9.01.93.03,1.83.14,2.7.08.67-.02,1.31-.19,1.91-.35.14-.03.26-.07.4-.08.51-.02.7.07.98.48.06.09.13.18.18.27.17.3.06.67-.33,1.03-.57.52-1.28.85-1.98,1.06-.35.1-.7.2-1.05.26-.35.03-.69.04-1.03.05-1,.02-1.92-.06-2.77-.01v-.07Z"/><path class="cls-2" d="M134.34,420.54c-.78.24-1.54.56-2.25.99-.26.15-.47.38-.72.55-.88.6-1.74,1.31-2.44,2.17-.33.37-.59.79-.81,1.23-.2.6-.65,1.07-1.11,1.61-.16.16-.38.07-.63-.2-.24-.26-.6-.75-.62-1.23,0-.21,0-.41,0-.62,0-.21.11-.37.17-.55.14-.36.31-.71.51-1.04.36-.69.97-1.21,1.57-1.69.74-.56,1.33-1.28,2.08-1.82.82-.59,1.73-1.07,2.65-1.44.57-.23,1.15-.42,1.74-.59.89-.25,1.8-.4,2.7-.5.7-.09,1.38-.26,2.09-.3.16-.01.31-.04.47,0,.58.1.73.4.8.81.01.1.04.2.04.29.01.3-.25.56-.64.79-.57.31-1.11.39-1.65.55-.53.14-1.06.29-1.59.43-.79.16-1.59.34-2.34.63l-.03-.06Z"/><g class="cls-4"><path class="cls-2" d="M84.31,436.65c.06-1.15.26-2.32.68-3.47.22-.57.48-1.14.85-1.68.32-.53.86-1.07,1.18-1.38.54-.53,1.02-1.09,1.57-1.59l2.88-2.54c.95-.83,1.87-1.67,2.65-2.61.69-.84,1.3-1.74,1.74-2.71l.38-.96c.11-.33.18-.66.34-.98l.38-1c.05-.17.14-.34.26-.5.1-.17.12-.35.18-.52.14-.44.1-.39.17,0,.05.2.04.47.33.84.18.36.24.79.3,1.26.07.42,0,.82-.08,1.22-.05.41-.18.8-.27,1.2-.22.79-.53,1.57-.9,2.3-.75,1.48-1.9,2.65-3.03,3.7-1.38,1.24-2.67,2.58-3.95,3.85l-1.05,1.04c-.2.19-.32.33-.44.47-.14.13-.22.31-.34.47-.43.67-.69,1.52-.82,2.41-.16,1.09-.14,2.26.07,3.39.15.86.38,1.71.7,2.5.33.77.74,1.39,1.37,1.84.99.72,2.38.82,3.92,1.51.34.15.69.32,1.02.57.6.47.9.91.97,1.28.02.4-.13.71-.37.99-.11.13-.21.27-.33.37-.2.16-.45.18-.76.15-.3-.04-.68-.08-.91-.25-.78-.44-1.67-.61-3.08-1.07-.68-.23-1.47-.55-2.24-1.08-.78-.52-1.47-1.29-1.95-2.1-.36-.64-.57-1.17-.76-1.74-.19-.56-.34-1.13-.45-1.7-.23-1.14-.33-2.29-.31-3.46h.07Z"/></g><path class="cls-2" d="M99.17,421.94c-.39.99-.86,1.95-1.46,2.84-.21.33-.37.67-.61.98-.84,1.07-1.81,2.02-2.85,2.85-.46.36-.89.77-1.37,1.09-.32.19-.64.38-.99.54-.37.11-.78.13-1.16.17-.24.01-.2.02-.09-.17.13-.17.25-.66.42-1.11.79-1.25,1.84-1.9,2.85-2.84.62-.54,1-1.32,1.41-2.03.46-.79.86-1.61,1.23-2.47.22-.53.42-1.07.57-1.63.23-.84.45-1.71.48-2.59.03-.68-.13-1.36-.25-2.02-.02-.15-.08-.29-.09-.44.07-.55.26-.73.86-.89.13-.04.26-.08.38-.1.4-.08.84.13,1.11.56.23.32.31.65.37.99.07.34.11.69.13,1.04.04.7,0,1.42-.11,2.13-.15,1.06-.43,2.1-.78,3.12l-.06-.02Z"/><path class="cls-2" d="M86.78,450.71c-2.55-.11-5.06-.33-7.64-1.14-.32-.11-.65-.22-.98-.36-.14-.05-.37-.16-.59-.29-.22-.12-.44-.25-.62-.41-.78-.62-1.26-1.4-1.56-2.11-.63-1.46-.74-2.81-.81-4.13-.08-1.91.01-3.75.29-5.55.51-3.17,1.33-6.22,2.43-9.21.56-1.5,1.17-2.97,2.04-4.43.94-1.49,2.18-2.75,3.53-3.68,2.39-1.7,4.99-2.89,7.6-3.88,3.34-1.25,6.95-2.13,10.59-1.48,1.13.26.94.35.04.8-.45.21-1.06.65-1.77,1.03-.37.2-.75.41-1.15.63-.2.12-.41.2-.62.33-.22.07-.44.14-.67.21-3.22,1.04-6.48,1.97-9.4,3.48-1.44.75-2.78,1.63-3.9,2.61-.3.24-.54.5-.77.77-.26.27-.46.51-.67.83-.42.63-.81,1.37-1.19,2.13-1.76,3.69-2.68,8.07-3.13,12.21-.11,1.14-.17,2.28-.11,3.38.06,1.09.25,2.16.64,2.94.19.39.43.64.68.8.08.07.39.2.62.29.25.1.51.18.77.27,1.06.32,2.2.54,3.34.69,1.41.19,2.85.25,4.27.19.69-.03,1.46-.1,2.06-.18.41-.05.76-.11,1.14-.23.28-.09.57-.2.81-.38.23-.17.49-.49.3-.76-.41-.43-1.03-.56-1.58-.83-.17-.07-.86-.39-1.37-.69-.54-.31-1.06-.68-1.55-1.13-.48-.45-.91-.97-1.24-1.57-.34-.59-.55-1.28-.66-1.89-.34-1.95-.2-3.8.28-5.66.27-.92.63-1.86,1.36-2.76.74-.86,1.55-1.38,2.35-1.87.71-.42,1.4-.8,2.13-1.12,2.71-1.14,3.64-1.14,4.49-.56.19.14.43.26.57.42.49.53-.46,1.42-2.27,2.32-1.33.67-2.67,1.37-3.74,2.15-.52.38-.98.8-1.11,1.09-.21.37-.43.94-.56,1.54-.28,1.2-.35,2.64-.13,3.74.11.56.22.83.49,1.19.25.34.63.67,1.13.97.19.11.39.23.61.33l.33.16.77.33c1.1.46,2.29.92,3,1.51.72.61,1.03,1.14,1.21,1.92.08.41.06.9-.05,1.3-.09.41-.29.77-.52,1.1-.43.67-1.14,1.24-2.12,1.67-.93.46-2.2.7-3.3.86l-.39.06-.25.02-.5.04c-.33.03-.66.04-.99.06-.65.02-1.3.03-1.95.01v-.08Z"/><path class="cls-2" d="M143.41,447.47c3.06.27,6.14.41,9.2.37,3.06-.05,6.14-.23,9.05-.82,1.05-.22,2.09-.51,3-.9.46-.19.89-.41,1.23-.64.34-.22.62-.51.65-.56.07-.1.11-.23.11-.35-.01-.12-.07-.24-.15-.33.02,0-.14-.13-.27-.21-.12-.1-.3-.18-.45-.27-.67-.35-1.51-.64-2.36-.89-1.72-.5-3.55-.86-5.39-1.2-3.69-.67-7.46-1.24-11.21-2.02-.97-.2-1.94-.41-2.91-.65l-1.45-.37-.75-.21c-.36-.1-.7-.21-1.05-.32l-.74-.4s-.11,0-.05-.09l-.08-.07c-.04-.06-.1-.1-.13-.16-.06-.13-.11-.25-.14-.4-.14-.56-.13-1.19-.12-1.81.04-.93.12-1.71.24-2.55.33-2.33.81-4.63,1.57-6.88.19-.56.4-1.12.63-1.67.25-.54.52-1.08.82-1.6.61-1.03,1.26-2.08,2.19-2.9.64-.46.99-.55,1.06-.45.09.11-.09.46-.21,1.11-.12.65-.36,1.46-.55,2.45-.1.49-.21,1.02-.32,1.57-.05.28-.13.56-.17.85-.09.28-.17.57-.26.86-.59,1.87-1.02,3.83-1.31,5.79-.15.98-.25,1.97-.32,2.92l-.04.56v.02s-.02.03,0,.04c0,0,0,.01,0,.01.01,0-.04,0,.16.05l.88.25c.59.16,1.19.31,1.8.45,1.21.28,2.44.54,3.69.78,2.49.48,5.03.92,7.58,1.45,2.12.44,4.28.82,6.5,1.36,1.11.28,2.23.58,3.39,1.08.58.24,1.18.56,1.78,1.03.76.61,1.27,1.39,1.42,2.3.06.57.03,1.14-.16,1.69-.2.53-.49,1.05-.88,1.46-.67.73-1.41,1.15-2.11,1.51-1.65.79-3.28,1.17-4.9,1.49-1.62.3-3.24.5-4.85.64-3.22.27-6.43.31-9.64.21-3.94-.13-7.87-.49-11.78-1.1-2.96-.5-5.93-1.08-8.81-2.4-.72-.34-1.44-.73-2.13-1.31-.34-.3-.68-.63-.96-1.09-.25-.43-.36-.81-.53-1.22-.51-1.62-.58-3.21-.54-4.74.22-4.76,1.26-9.19,2.55-13.57.3-.96.55-1.91.89-2.86.62-1.77,1.11-2.9,1.59-3.64.5-.73.95-1.09,1.48-1.31.24-.1.5-.25.7-.28.35-.05.49.32.49,1.04-.01.71-.14,1.78-.52,3.07-1.06,3.84-2.11,7.78-2.84,11.74-.39,1.96-.7,3.95-.78,5.83v1.38c.06.42.07.88.14,1.26.1.35.13.8.29,1.04l.09.21.04.11.02.06h0s0,.02,0,.02c-.1.05.22-.12-.22.12h.02s.07-.05.07-.05l.14-.08h0s0,0,.01.02c.03.02.02.04.07.08.21.21.71.54,1.28.81.57.27,1.22.53,1.9.75,1.36.44,2.81.84,4.29,1.16,2.97.64,6.04,1.07,9.12,1.3v.08Z"/><path class="cls-2" d="M101.93,335.36s-45.52,2.7-48.03,4.32c-2.51,1.61-3.64,14.89-3.67,19.4s.7,21.83,4.75,29.08,9.66,15.21,15.36,18.37c5.7,3.17,18.09,6.99,18.09,6.99,0,0,23.04,5.09,24.79.1,11.7-33.23,21.6-70.7,21.6-70.7,0,0-4.5,2.5-11.18,2.44s-16.1-5.42-16.1-5.42l-5.62-4.57Z"/><path class="cls-2" d="M140.26,338.53l-10.94,39.76s-9.45,31.57-8.9,34.14c0,0,10.03,4.04,31.47,4.98,21.75.95,24.49.95,24.49.95l13.13-39.92s8.78-54.33,8.75-56.89-4.34-27.53-4.34-27.53c0,0-4.39-7.46-8.26-6.67-3.87.79-12.42-.24-14.38,1.95s-6.79,8.5-4.34,9.91c2.45,1.41-.51,8.45-2.87,12.15-2.36,3.7-14.76,22.3-17.42,23.85s-6.4,3.31-6.4,3.31Z"/><path class="cls-2" d="M193.39,376.71c.02,1.56-6.83,35.35-12.35,41.66-4.21,4.81-30.75-2.67-30.75-2.67,0,0-7.78,18.13-3.63,21.59s28.2,7.05,31.41,6.21c3.2-.84,24.07,1.85,26.34.09s9.25-7.42,9.25-7.42c0,0,3.84-13.9,2.81-16.27-1.03-2.37-4.89-18.26-6.35-19.63s-9.07-16.19-9.07-16.19l-7.65-7.36Z"/><path class="cls-2" d="M126.59,414.3l-6.16,21.11s-24.99.05-24.71-.81,4.75-20,4.75-20c0,0,19.63-1.83,26.12-.31Z"/><g class="cls-4"><path class="cls-2" d="M110.87,336.92c.56.47,1.11.96,1.73,1.33.3.2.6.42.91.6l.96.49c1.3.63,2.75,1.11,4.19,1.46,2.91.69,5.98.62,8.98,0,2.2-.41,4.31-1.28,6.38-2.18,3.66-1.63,7.11-3.84,10.3-6.4,3.2-2.54,6.17-5.4,8.9-8.49,2.43-2.73,4.65-5.68,6.63-8.72,2.57-3.9,4.84-7.96,6.96-12.12.67-1.3.62-1.14.5.14-.08,1.28-.36,3.72-1.48,6.27-1.03,2.24-2.15,4.42-3.44,6.51-1.34,2.06-2.74,4.07-4.27,5.99-3.03,3.85-6.4,7.47-10.19,10.66-4.51,3.79-9.52,7.57-15.32,9.76-3.16,1.2-6.56,1.94-10.01,1.9-3.45-.02-6.86-.79-9.99-2.31-3.87-1.93-6.82-5.15-9.01-8.67-3.26-5.43-4.74-11.68-5.14-17.79-.05-1.19-.18-2.38-.19-3.56,0-1.18,0-2.36,0-3.54,0-1.18.14-2.34.21-3.52l.14-1.76c.05-.59.16-1.16.24-1.75.15-1.02.28-2.03.45-3.06.34-1.91.74-3.12,1.06-3.96.34-.84.66-1.29,1.07-1.61.19-.15.38-.35.55-.42.55-.23.63,1.39.24,4.12l-.24,1.52-.16,1.54c-.11,1.03-.21,2.06-.32,3.1-.13,1.03-.11,2.08-.18,3.12-.02,1.04-.16,2.09-.12,3.14,0,1.05,0,2.09,0,3.15.02,1.05.13,2.09.19,3.14.03,1.05.2,2.08.35,3.12l.22,1.55c.09.51.23,1.02.33,1.53.6,3.04,1.67,5.95,3.08,8.63,1.4,2.69,3.29,5.08,5.52,7.01l-.04.07Z"/></g><path class="cls-2" d="M150.92,289.65c-.27-.92-.24-1.95-.04-2.91.08-.35.13-.7.27-1.01.49-1.12,1.22-1.95,1.89-2.75.31-.34.6-.7.87-1.06.18-.23.33-.48.54-.69.23-.2.47-.37.72-.55.16-.11.19-.05.22.16.01.2.09.6.04.97-.41,1.14-1.05,2.14-1.78,2.98-.43.52-.62,1.17-.75,1.74-.16.63-.16,1.29-.03,1.97.07.42.18.85.36,1.26.26.62.61,1.24,1.09,1.76.36.42.87.68,1.28,1.05.09.08.2.14.29.23.32.33.33.54.05.97-.06.1-.12.2-.19.29-.24.31-.6.41-.95.27-1.08-.36-1.93-1.16-2.66-2.15-.54-.73-.97-1.61-1.26-2.53l.05-.02Z"/><path class="cls-2" d="M151.4,292.69c-.41-.2-.87-.33-1.34-.42-.17-.04-.35.01-.52-.02-.62-.07-1.27-.1-1.92-.02-.29.03-.56.14-.82.25-.31.19-.64.32-1.08.35-.14,0-.22-.13-.26-.36-.03-.23-.05-.62.1-.87.31-.37.73-.57,1.14-.77.42-.18.86-.32,1.33-.31.55,0,1.09-.16,1.64-.16.6,0,1.21.09,1.79.21.36.1.71.21,1.06.36.53.2,1.01.51,1.49.78.35.25.79.41,1.09.74.07.07.15.12.21.21.2.31.18.48-.08.75-.06.06-.11.12-.18.18-.21.18-.49.22-.72.15-.71-.18-1.25-.28-1.74-.54-.38-.16-.77-.36-1.2-.46v-.05Z"/><path class="cls-2" d="M147.85,291.9c-.46.29-.91.61-1.35.96-.16.13-.28.3-.45.42-.59.44-1.18.9-1.75,1.39-.26.21-.46.48-.72.69-.32.28-.65.57-1.07.74-.13.05-.22-.08-.26-.3-.04-.21-.07-.54.03-.76l.3-.57c.09-.21.22-.37.38-.51.3-.3.62-.59.97-.85.43-.31.73-.77,1.12-1.14.43-.41.89-.79,1.36-1.17.29-.23.59-.45.9-.67.47-.32.97-.62,1.49-.89.19-.12.39-.24.61-.36.2-.13.43-.24.68-.33.11-.04.21-.1.33-.12.44-.04.59.1.62.63,0,.12.01.24,0,.36-.02.4-.18.74-.34.85-.47.34-.92.53-1.51.85-.42.23-.87.5-1.31.81l-.03-.03Z"/><path class="cls-2" d="M98.75,295.7c.3-1.68.57-3.35.94-5.01l.53-2.5.61-2.48c.28-1.21.55-2.42.88-3.61,1.18-4.21,2.7-8.32,4.3-12.36.75-1.78,1.51-3.57,2.25-5.34.51-1.12.98-2.26,1.53-3.36.58-1.09,1.2-2.16,1.8-3.23.38-.66.35-.56.19.07-.18.63-.38,1.84-.77,3.21-1.56,4.76-2.92,9.52-4.77,14.17-.54,1.4-.97,2.87-1.37,4.35-.44,1.47-.79,2.98-1.21,4.45-.87,3.25-1.66,6.53-2.32,9.84l-.59,3.06-.49,3.08c-.25,1.55-.41,3.12-.62,4.69-.17,1.57-.31,3.13-.42,4.69-.06,1.21-.1,2.42-.13,3.62v3.6c0,.53.01,1.05.02,1.58.03,1.98-.17,2.61-.49,3.04-.08.1-.15.23-.23.29-.25.2-.5-.61-.69-2.07-.4-4.33-.45-8.93-.16-13.53.17-3.42.64-6.84,1.14-10.23h.06Z"/><path class="cls-2" d="M200.04,198.52c0-.6.04-1.19.07-1.78.01-.21-.02-.42,0-.63.07-.75.21-1.48.31-2.21.04-.32.06-.65.07-.97.08-.41.18-.82.36-1.22.06-.12.13-.1.23.02.1.12.29.33.39.57l.21.63c.05.21.02.41.02.61,0,.41-.04.81-.1,1.23-.08.49.03,1,.04,1.5.02.55.03,1.1.07,1.65.03.34.06.67.11,1,.09.49.16,1,.38,1.4.17.32.48.53.72.62.06.02.12.02.16.04.16.05.1.21-.03.74l-.08.35c-.05.19-.13.36-.26.48-.13.12-.33.21-.52.16-.59-.12-1.06-.53-1.36-.95-.31-.43-.48-.89-.59-1.34-.16-.65-.2-1.27-.23-1.87h.04Z"/><path class="cls-2" d="M161.79,226.76s5.68,1.14,7,6.81c1.14,4.88-.36,7.11-1.32,8.75-.96,1.64,2.75-1.98,3.83-3.81s.8-6.39.8-6.39c0,0-3.03-5.36-3.3-5.36h-7Z"/><path class="cls-2" d="M194.54,172.01c5.57-2.11,12.24-10.25,11.88-17.98,0,0-.76-10.17-3.6-13.01-2.84-2.83-11.4-8.04-15.63-7.09-4.23.95-11.79,5.53-11.79,5.53,0,0-11.03-16.22-16.84-18.73-5.8-2.51-32.68-2.15-32.68-2.15,0,0-17.46,13.46-17.6,16.29-.14,2.83-10.35,21.74-12.61,24.27-2.26,2.53-20.67,10.69-24.33,12.86s-11.72,7.55-12.37,12.61c-.65,5.05,1.55,15.52,1.55,15.52,0,0,1.99,7.06-.17,10.45s-8.57,10.47-9.09,12.59c-.52,2.11-.21,6.08,1.21,7.59s7.37,5.83,9.63,5.66c2.26-.17,3.75-.45,8.23,2.37,4.48,2.82,12.11,8.68,14.36,10.13,2.25,1.45,12.7,3.15,16.65,2.16,3.95-.99,8.94-7.73,8.94-7.73l6.67-17.89s9.39-4.39,11.76-5.93c2.37-1.54,7.47-5,9.19-7.37,1.71-2.36,3.39-10.64,3.39-10.64l-1.33-9.05s-7-10.38-5.16-12.41c1.84-2.03,7.19-4.62,8.31-4.15,1.12.47,8.66,6.77,8.66,6.77,0,0,5.28,1.19,6.77-.33,1.48-1.52,13.99-17.26,14.84-17.87.85-.61,9.18-4.76,12.28-2.84,3.1,1.92,8.86,10.37,8.86,10.37Z"/><path class="cls-2" d="M265.3,214.52c-.5.42-1,.84-1.5,1.26-.19.15-.31.35-.5.5-.67.52-1.35,1.05-2.01,1.56-.31.23-.48.56-.81.77-.32.35-.64.69-1.06.97-.13.09-.24-.01-.33-.23-.08-.21-.19-.57-.12-.86l.22-.75.06-.18c.03-.06-.01-.16.02-.22l.18-.33c.26-.43.55-.83.92-1.16.49-.37.77-.94,1.16-1.4.42-.51.93-.95,1.41-1.41.3-.28.6-.56.88-.85.43-.44.9-.85,1.26-1.33.29-.38.43-.86.65-1.29.05-.09.09-.19.15-.27.12-.14.23-.22.41-.18.2.06.41.17.69.36l.36.24c.19.14.33.3.45.5.12.2.24.45.2.6-.03.25-.07.5-.14.73-.08.21-.19.41-.3.6-.23.38-.52.71-.81,1.04-.44.48-.93.92-1.4,1.38l-.05-.04Z"/><path class="cls-2" d="M273.06,204.22c.42-1.27.77-2.62.98-4,.08-.5.06-1.01.12-1.51.19-1.77.27-3.61-.08-5.3-.14-.75-.44-1.46-.86-1.94l-.21-.2s-.02-.01-.09-.03c-.11-.05-.31-.1-.52-.13-.42-.08-.93-.15-1.38-.07-.26.05-.38-.02-.26-.4.13-.36.56-1.05,1.34-1.38.35-.12.72-.17,1.18-.14.23,0,.5.09.78.24.13.07.36.23.41.28l.23.2c.58.56.94,1.18,1.22,1.78.53,1.2.68,2.41.69,3.58,0,1.4.18,2.81.1,4.2-.09,1.53-.31,3.04-.66,4.54-.22.92-.5,1.83-.84,2.73-.26.68-.58,1.36-1,2.01-.42.64-.93,1.32-1.79,1.79-1.26.67-2.89.61-4.04-.07-.26-.14-.52-.28-.74-.49-.79-.79-.81-1.42-.25-1.89.13-.11.25-.21.38-.27.46-.14.94-.2,1.36-.06.67.22,1.36.29,1.67.26.17-.02.24-.06.35-.12.01-.01.16-.12.34-.35.56-.71,1.13-1.98,1.49-3.26l.07.02Z"/><path class="cls-2" d="M268.53,202.79c.51-1.15.83-2.44,1.03-3.78.06-.49.03-.98.06-1.48.1-1.75,0-3.58-.48-5.26-.12-.36-.25-.73-.43-1.04-.17-.3-.39-.61-.52-.72-.04-.06-.29-.17-.46-.22-.19-.05-.39-.09-.57-.1-.39,0-.67.02-.89.22-.13.13-.47.15-.69-.3-.1-.22-.11-.6.11-.98.21-.38.64-.7,1.1-.81.82-.18,1.59-.13,2.38.18,1.13.59,1.38,1.23,1.71,1.81.57,1.17.84,2.33.97,3.51.13,1.4.45,2.81.44,4.24,0,1.57-.21,3.15-.68,4.67-.28.94-.66,1.85-1.14,2.71-.72,1.32-1.74,2.47-2.87,3.43-.24.19-.41.36-.69.57-.32.24-.68.39-1.05.51-.73.2-1.5.2-2.24-.04-.32-.1-.65-.23-.96-.45-.52-.47-.69-.99-.68-1.34.02-.37.2-.6.52-.78.14-.08.28-.16.43-.2.49-.11.98.1,1.34.02.29-.06.44-.05.63-.07.19-.02.36-.07.42-.13.01-.02.02-.02.02-.03,0-.03.03.07.05.09v.02s.01,0,.01,0h0s0,0,0,0c-.04-.05.08.12-.08-.12h0s.01-.02.01-.02l.06-.05.11-.09.23-.18c.29-.25.58-.51.84-.79.78-.83,1.46-1.85,1.9-3.03l.07.02Z"/><path class="cls-2" d="M263.96,202.83l.2-.56c.28-.89.76-1.38,1.13-1.79.39-.4.76-.72,1.11-1.02.34-.3.66-.58.9-.83l.15-.16s.03-.02.04-.04c.03-.04.06-.08.08-.13,0-.06,0-.11-.02-.17.02,0-.23-.4-.45-.68l-.75-.96c-.21-.29-.44-.6-.66-.95-.2-.31-.54-.9-.6-1.5l-.02-.36-.03-.29c-.02-.2-.04-.38-.07-.57-.06-.36-.15-.69-.27-.95-.13-.26-.26-.46-.49-.62-.12-.08-.24-.17-.4-.24-.14-.07-.37-.15-.42-.17-.1-.05-.22-.04-.33,0-.08,0-.28.12-.48.2-1.06.51-2.07,1.35-2.99,2.2-1.16,1.14-2.33,2.28-3.48,3.49-.36.37-.45.24-.4-.26.06-.49.21-1.41.71-2.3.37-.62.76-1.23,1.2-1.81.46-.55.95-1.09,1.48-1.6.53-.51,1.08-1,1.72-1.45.33-.22.67-.45,1.09-.63.6-.28,1.25-.34,1.87-.23.14.04.32.09.43.14l.29.11c.2.09.4.18.61.3.41.24.83.57,1.15.98.51.64.75,1.33.91,1.95.08.31.14.62.19.92.05.27.09.65.12.82.01.1.02.12.11.27.09.15.23.33.38.52l.96,1.19c.25.33.49.66.74,1.06.34.54.55,1.14.53,1.76-.07.61-.36,1.2-.75,1.67-.31.37-.62.66-.91.94-.59.54-1.17,1.03-1.54,1.49-.15.18-.21.31-.27.43-.33,1.12-.75,2.23-1.21,3.31-.45,1.03-.96,2.03-1.61,3-.35.49-.62.92-1.25,1.47-.56.49-1.33.86-2.05.58l-.18-.06c-1.13-.45-1.92-1.18-2.38-2.13-.46-.94-.56-1.94-.54-2.85.01-.41.05-.81.13-1.2.15-.73.35-1.15.6-1.42.23-.26.51-.37.84-.43.15-.03.3-.08.43-.08.43-.04.73.68.78,1.66-.02.53,0,1.03.03,1.5,0,.47.05.9.14,1.24.08.36.21.6.35.74.06.09.15.14.24.21.08.04-.03-.02,0-.02h0s0-.02,0-.02h0s-.03.02.1-.12c.53-.64,1.07-1.58,1.53-2.52.46-.96.86-1.97,1.2-3.01l.07.02Z"/><path class="cls-2" d="M206.69,440.23c2.57-1.19,4.86-2.89,6.33-5.25,1.49-2.3,2.4-5.24,2.74-8.17.27-2.15.18-4.35-.05-6.55-.39-3.87-1.4-7.74-2.79-11.48-1.39-3.74-3.14-7.38-5.14-10.89-1.75-3.12-3.75-6.14-5.86-9.01-1.36-1.84-2.78-3.65-4.17-5.48-.69-.92-1.42-1.8-2.08-2.75-.66-.95-1.31-1.9-1.94-2.88-.78-1.22-.59-1.14.5-.48.54.33,1.35.78,2.26,1.39.45.31.96.63,1.43,1.03.46.41.93.86,1.39,1.36,3.29,3.48,6.11,7.36,8.77,11.36,2.67,4,4.89,8.33,6.71,12.84,2.13,5.39,4.15,11.25,4.37,17.37.13,3.34-.26,6.76-1.37,9.97-.14.4-.27.8-.42,1.2l-.54,1.18c-.32.81-.85,1.52-1.28,2.27-1.02,1.4-2.17,2.75-3.56,3.77-3.36,2.65-7.45,3.91-11.42,4.6-6.09,1.02-12.21.62-18.14.03-4.62-.48-9.15-1.01-13.67-1.76-.99-.17-1.97-.3-2.97-.49-3.69-.73-4.77-1.2-5.36-2.33-.14-.25-.33-.52-.39-.75-.23-.78,1.44-1.17,4.17-.79,8.07,1.07,16.39,2.63,24.73,2.99,3.09.12,6.17.15,9.18-.2,2.99-.34,5.94-.97,8.54-2.18l.04.08Z"/><path class="cls-2" d="M96.97,432.44l-.11.4-.05.18v.02s-.06.07-.07.11c-.05.08-.07.22.03.25.04.02.08.04.13.06.03,0,.05.02.08.03h.03s.1.02.1.02l.2.02c.56.05,1.13.09,1.71.12.85.04,1.7-.02,2.56.03,3.03.19,6.1.26,9.17.45,1.36.08,2.73.04,4.09.07.87.01,1.75,0,2.63.06.88.11,1.76.33,2.64.63.57.23.4.41-.09.67-.49.25-1.32.8-2.3,1.08-3.46.38-6.99.65-10.57.32-2.14-.2-4.37,0-6.58-.06-1.22-.05-2.43-.12-3.69-.27-.8-.1-1.9-.22-2.56-.66-.16-.12-.33-.23-.49-.38-.14-.16-.19-.38-.25-.57-.14-.38-.1-.84-.06-1.28.05-.28.08-.56.15-.84.06-.27.13-.59.18-.74.1-.37.21-.74.32-1.1l.69-2.14c.71-2.14,1.49-4.26,2.14-6.38.51-1.65.84-3.32,1.23-4.98.09-.37.14-.73.24-1.09.4-1.34.77-1.68,1.57-1.76.18-.02.36-.06.52-.06.51,0,.9.72.81,1.78-.34,3.12-1.32,6.2-2.28,9.26-.73,2.26-1.48,4.55-2.04,6.76l-.08-.02Z"/><path class="cls-2" d="M148.29,416.98c4.64.34,9.31.57,13.96.7,2.33.11,4.66.19,6.97.22,1.16,0,2.32.09,3.46.1.57.01,1.13-.05,1.66-.09l.23-.02c.06,0,.1-.04.12-.1l1.38-2.59c.55-.94.96-1.99,1.4-3.01l1.33-3.07c.42-1.04.78-2.1,1.17-3.15.43-1.18.87-2.36,1.28-3.55l1.13-3.61c.37-1.21.77-2.4,1.11-3.61l1.03-3.64c4.87-17.13,8.43-34.68,10.91-52.35,1.02-7.84,1.78-15.8,1.68-23.58-.01-.62.01-1.25-.04-1.87l-.17-1.84-.16-1.84c-.07-.62-.17-1.25-.26-1.87-.37-2.49-.8-4.96-1.38-7.37-.58-2.41-1.34-4.77-2.37-6.96-1.01-2.21-2.45-4.18-4.33-5.63-.55-.51-1.04-.74-1.31-.98-.28-.22-.39-.36-.34-.43.05-.06.26-.06.63.02.36.09.93.17,1.55.47,1.33.48,3.05,1.68,4.63,3.58,1.62,1.88,2.94,4.48,3.84,7.38.81,2.57,1.38,5.17,1.86,7.76.22,1.3.47,2.56.63,3.89l.33,4.05c0,2.65.07,5.31-.13,7.92-.07,1.31-.12,2.62-.22,3.93l-.35,3.9c-1,10.4-2.68,20.7-4.76,30.96-1.23,6.14-2.58,12.38-4.02,18.64-.71,3.13-1.54,6.25-2.3,9.37-.87,3.1-1.68,6.22-2.65,9.28l-1.76,5.52-1.99,5.46c-.66,1.82-1.51,3.59-2.26,5.38-.36.9-.83,1.77-1.29,2.64l-1.51,2.84c-.55,1.12-2.43,1.01-3,1.1-.83.04-1.63.13-2.43.18-1.61.14-3.21.12-4.81.14-3.2.04-6.39-.03-9.58-.17-8.66-.37-17.32-.96-25.94-2.27-2.2-.35-4.41-.76-6.61-1.33-1.1-.29-2.2-.62-3.29-1.05-.56-.24-1.06-.45-1.68-.81-.68-.42-1.32-.91-1.74-1.55-.3-.69-.17-1.44,0-2.21.1-.43.17-.64.24-.92l.23-.79.96-3.13c.64-2.08,1.28-4.15,1.91-6.22,1.27-4.14,2.54-8.27,3.8-12.38,2.93-9.65,5.6-19.18,8.28-28.77.58-2.12,1.15-4.19,1.73-6.32,2.23-7.89,3.11-10.34,4.54-11.77.31-.33.65-.79.91-.96.82-.6.71,2.85-.77,8.69-4.29,17.35-9.86,35.34-15.38,53.37-.58,1.93-1.2,3.85-1.69,5.8l-.76,2.9-.18.71-.09.33s0,.01,0,.01h0s-.05-.01.06.05c.4.21.86.42,1.37.61,1.01.38,2.15.69,3.29.97,2.31.55,4.72.97,7.14,1.32,4.86.69,9.8,1.14,14.75,1.48v.09Z"/><path class="cls-2" d="M55.07,393.13c-2.22-3.95-3.62-8.22-4.68-12.51-1.06-4.29-1.56-8.67-1.82-13.03l-.13-2.39-.05-2.39c-.07-1.59.03-3.18.07-4.77.07-1.4.21-2.8.32-4.2.19-1.39.31-2.79.56-4.18l.36-2.08c.13-.69.3-1.39.45-2.08.14-.69.34-1.38.54-2.08l.3-1.04c.11-.35.26-.69.39-1.04l.41-1.04.72-1.31c.07-.12.16-.21.25-.31l.13-.15c.13.05.13-.05.2-.07.22-.15.42-.31.7-.37.26-.09.52-.16.8-.22l.56-.12c1.4-.27,2.76-.48,4.14-.69,2.74-.4,5.48-.74,8.23-1.06,4.87-.54,9.77-1.08,14.62-1.43,6.22-.39,12.57-.97,18.76.5,1.93.26,1.66.3.01.44-.82.05-2,.39-3.4.76-1.4.31-3.03.57-4.8.77-6.27.36-12.54.96-18.81,1.59-3.14.33-6.28.7-9.41,1.1l-4.7.65-2.33.36-2.07.36c-.12,0-.27.03-.3.15-.03.05-.04.05-.16.26-.1.15-.17.38-.25.57l-.47,1.23-.39,1.33c-.51,1.78-.87,3.66-1.17,5.55-.57,3.8-.81,7.68-.88,11.52-.06,4.23.23,8.46.83,12.64.58,4.18,1.62,8.29,3.14,12.18,1.88,4.77,4.59,9.27,8.12,13.03,5.26,5.79,12.36,9.85,19.91,11.84,5.88,1.59,11.91,1.9,17.91,1.69,1.33-.05,2.62-.16,3.95-.25,4.94-.38,6.55-.42,7.73.39.27.18.61.35.78.54.55.64-1.39,1.49-5.1,2.04-5.5.79-11.31,1.08-17.18.47-5.86-.59-11.81-2.06-17.34-4.68-8.23-3.86-15.18-10.51-19.55-18.42l.07-.05Z"/><path class="cls-2" d="M72.72,288.83c-1.99,3.58-3.91,7.22-5.72,10.9-.68,1.34-1.24,2.73-1.88,4.08-2.31,4.75-4.49,9.57-6.46,14.47-.42,1.09-.84,2.19-1.23,3.29-.36,1.11-.72,2.22-1.07,3.32-.44,1.42-.78,2.86-1.18,4.29-.14.72-.33,1.42-.55,2.13-.26.71-.3,1.39-.62,2.09-.51.88-.46.8-.92-.03-.23-.41-.52-1.03-.68-1.8-.06-.36-.1-.76-.11-1.18,0-.21,0-.43-.01-.65.02-.22.05-.44.09-.66,1.24-6.23,3.5-11.99,6.13-17.64.79-1.69,1.55-3.42,2.27-5.19.74-1.76,1.5-3.52,2.27-5.25.87-1.9,1.79-3.77,2.69-5.66.92-1.88,1.88-3.73,2.82-5.59,1.19-2.28,2.41-4.54,3.63-6.8.95-1.7,1.89-3.41,2.87-5.09.99-1.68,1.97-3.36,2.95-5.03.78-1.29,1.51-2.59,2.22-3.9.73-1.3,1.51-2.57,2.28-3.86.35-.56.64-1.14,1.04-1.68,1.45-2.01,2.12-2.5,3.16-2.34.24.04.49.04.7.12.69.27.56,1.42-.33,2.93-2.62,4.49-5.5,9.14-8.24,13.95-2.05,3.55-4.12,7.14-6.06,10.79l-.08-.03Z"/><path class="cls-2" d="M172.59,238.29l-.56,1.21-.28.59-.36.55-.72,1.09-.86.97c-.39.49-.84.93-1.32,1.33-1.74,1.36-3.79,2.23-5.89,2.5-.46.08-.93.08-1.39.13-.46.05-.92.1-1.37.06-1.17-.02-2.37-.13-3.37-.83-.31-.2-.25-.23.09-.38.17-.08.41-.2.69-.36.27-.12.56-.18.86-.18.53.07,1.06-.16,1.57-.13.26-.02.51,0,.77-.04l.75-.14.75-.11c.24-.06.48-.15.73-.21.49-.13.99-.23,1.45-.45.29-.11.58-.21.87-.34.27-.15.52-.35.78-.53.54-.33.95-.83,1.41-1.25.27-.22.47-.5.69-.77.21-.27.46-.52.64-.82.33-.61.77-1.17.98-1.84.38-.78.54-1.63.73-2.48.01-.65.14-1.31.08-1.97-.09-.65-.07-1.33-.33-1.95-.19-.48-.32-.97-.63-1.38l-.87-1.23c-.14-.17-.32-.31-.45-.49-.48-.64-.43-.99.19-1.69.14-.16.27-.33.42-.48.5-.5,1.18-.53,1.76-.03,1.82,1.41,2.71,3.88,2.94,6.29.23,1.82-.17,3.66-.67,5.37l-.07-.02Z"/><path class="cls-2" d="M50.34,231.57c-.76-1.11-1.34-2.4-1.63-3.79-.29-1.39-.25-2.89.12-4.26.39-1.4,1.05-2.53,1.72-3.56.68-1.03,1.42-1.93,2.16-2.8,1.47-1.73,2.98-3.28,4.2-4.89.61-.8,1.17-1.61,1.55-2.41.18-.41.36-.77.46-1.23l.18-.65c.05-.22.07-.45.1-.68.26-1.82.06-3.79-.39-5.82-.43-2.04-1.05-4.13-1.57-6.33-.51-2.2-.95-4.54-.82-7.02.13-2.49.88-4.92,2.06-7.06,1.75-3.11,4.26-5.58,6.96-7.59,2.73-1.99,5.65-3.6,8.78-4.82,2.73-1.04,5.45-1.84,8.06-2.73,2.6-.89,5.11-1.88,7.27-3.29,1.08-.69,2.01-1.52,2.96-2.47.49-.44.91-.96,1.34-1.46l.65-.75.6-.81c1.6-2.14,2.96-4.51,4.19-6.98,2.48-4.94,4.49-10.24,7.34-15.26,1.42-2.51,3.05-4.94,4.97-7.15,1.91-2.16,3.99-4.18,6.3-5.97,2.04-1.58,4.27-2.97,6.66-4.03,2.39-1.06,4.91-1.8,7.46-2.24,2.55-.45,5.12-.61,7.66-.63,1.28-.01,2.52.01,3.81.09l1.94.16c.64.07,1.27.2,1.91.3,3.25.58,6.41,1.57,9.43,2.87,3.02,1.32,5.85,3.03,8.49,5.02,2.62,1.99,5.06,4.29,6.99,7,.52.65.94,1.37,1.37,2.08l.64,1.06c.21.36.37.75.55,1.12.76,1.48,1.17,3.11,1.6,4.68.61,4.08.34,3.45-1.08.42-.43-.73-.98-1.59-1.59-2.54-.84-.85-1.36-1.98-2.35-2.97-1.77-2.09-4.03-4.32-6.69-6.51-4.73-3.84-10.39-6.67-16.28-8.12-.73-.21-1.48-.33-2.22-.46l-1.11-.19-1.11-.1-1.11-.1-1.18-.04c-.79-.04-1.57-.04-2.35-.04-3.12,0-6.17.27-9.08,1.01-5.86,1.37-10.94,4.99-15.19,9.57-4.29,4.43-7.04,10.17-9.78,16.11-1.66,3.54-3.3,7.23-5.45,10.77-.57.87-1.08,1.77-1.72,2.6l-.93,1.27-1.03,1.21c-.66.83-1.46,1.54-2.21,2.3-.78.75-1.68,1.43-2.57,2.04-3.67,2.39-7.7,3.6-11.49,4.88-1.9.63-3.77,1.26-5.53,2.02-1.74.75-3.47,1.68-5.08,2.69-3.54,2.23-6.72,5.13-8.35,8.76-.8,1.81-1.16,3.74-1.08,5.75.08,2.01.54,4.08,1.07,6.19.53,2.11,1.15,4.27,1.52,6.56.37,2.28.44,4.77-.25,7.16-.31,1.2-.88,2.38-1.52,3.36-.64,1-1.35,1.92-2.07,2.8-1.45,1.74-2.95,3.34-4.24,5-.78,1.02-1.49,2.08-1.89,3.15-.41,1.04-.52,2.16-.32,3.25.39,2.21,2.11,4.19,4.18,5.46,1.06.63,2.17,1.13,3.36,1.37,1.21.26,2.52.34,3.86.42,1.35.08,2.75.14,4.19.41,1.44.24,2.91.81,4.16,1.58,1.93,1.17,3.44,2.76,4.82,4.31,1.39,1.56,2.67,3.13,4.1,4.46,2.82,2.63,6.63,4.11,10.51,4.7,3.87.56,7.99.26,11.4-1.45.84-.4,1.64-1.01,2.45-1.55.42-.26.79-.58,1.15-.9l1.11-.95c1.37-1.38,2.6-2.88,3.54-4.58,1.46-2.64,2.23-5.59,2.78-8.65.3-1.53.51-3.1,1.06-4.75.15-.41.34-.84.52-1.26.27-.4.53-.88.83-1.19l.9-.95,1.01-.83c2.83-2.06,5.98-2.88,8.71-4.13,2.79-1.18,5.27-2.79,7.43-4.82.94-.9,1.83-1.84,2.63-2.88l.61-.76c.18-.25.3-.47.46-.7.27-.5.53-1.02.73-1.6.78-2.13.9-4.17.95-5.8.02-1.65-.09-2.99-.25-4.07-.31-2.17-.59-3.37-.74-4.52-.05-.54-.35-1.14-.39-1.53-.04-.32.12-.4.52-.22.2.09.46.25.77.48.27.25.6.58.94.99.65.83,1.3,2.03,1.78,3.53.47,1.5.79,3.31.83,5.35.03,1.51-.07,3.04-.38,4.57-.31,1.53-.77,3.07-1.62,4.57l-.73,1.1-.71.87c-.48.58-.94,1.18-1.49,1.72-1.03,1.12-2.17,2.17-3.39,3.12-2.44,1.9-5.27,3.4-8.03,4.49-2.76,1.13-5.38,2.02-7.05,3.56-.24.17-.4.4-.6.6l-.29.31c-.07.09-.09.16-.14.24-.04.08-.1.13-.15.24l-.14.35c-.11.2-.19.5-.27.79-.34,1.17-.59,2.59-.88,4.07-.56,2.94-1.41,6.11-2.96,9.02-1.52,2.93-3.79,5.49-6.38,7.46-.66.48-1.33.92-2,1.38-.32.23-.69.45-1.08.65-.39.2-.77.44-1.17.59-1.57.73-3.22,1.13-4.85,1.42-4.86.75-9.75.12-14.27-1.75-1.13-.46-2.23-1.05-3.28-1.72-1.05-.68-2.07-1.48-2.93-2.32-1.76-1.68-3.15-3.46-4.57-5.01-1.41-1.56-2.84-2.87-4.41-3.62-1.5-.72-3.43-.85-5.64-.95-1.1-.05-2.26-.1-3.49-.26-.62-.09-1.24-.18-1.89-.36-.64-.15-1.31-.39-1.89-.64-2.39-1.01-4.57-2.6-6.13-4.87l.06-.07Z"/><path class="cls-2" d="M203.12,200.21c.32-.16.61-.34.88-.53.12-.08.29-.22.33-.23.05-.02.09-.05.12-.1.04-.07-.03-.15-.01-.22-.02-.38-.14-.97-.25-1.48-.12-.53-.25-1.07-.4-1.61-.13-.48-.26-.96-.41-1.43-.11-.3-.15-.63-.17-.95-.04-.32-.07-.65-.04-.99.02-.21.2-.22.46-.11.25.11.64.3.86.59.99.93,1.43,2.04,1.68,3.35.07.39.21.76.37,1.15.07.2.16.39.23.61l.13.38.09.48c.04.35.03.7-.07,1.03-.11.33-.33.61-.52.88-.38.43-.74.74-1.14,1.02-.48.35-.99.64-1.5.9-.77.4-1.58.68-2.38,1-.62.24-1.2.61-1.89.84-.15.06-.29.13-.45.15-.59.13-.81-.15-.89-.91-.02-.18-.05-.35-.05-.52-.02-.57.19-1.11.46-1.29.83-.55,1.68-.82,2.59-1.18.67-.26,1.35-.54,1.95-.9l.04.05Z"/><path class="cls-2" d="M202.55,288.11c-.17-1.16-.67-2.48-1.31-3.7-.24-.45-.56-.84-.83-1.28-.47-.77-1-1.5-1.57-2.19-.56-.71-1.19-1.37-1.9-1.93-.63-.51-1.35-.89-2.08-1.23-.47-.22-.95-.41-1.44-.59-.5-.14-.96-.5-1.47-.7-.31-.16-.27-.16.03-.25.15-.05.38-.14.65-.24.17-.06.32-.11.45-.15.08-.03.16-.04.25-.08.08,0,.16,0,.25.01,2.41.1,4.73,1.33,6.41,3.06,1,1.04,2.02,2.11,2.84,3.3.87,1.32,1.64,2.73,2.12,4.31.29.97.48,2.02.35,3.15-.04.22-.05.42-.13.67-.08.24-.17.48-.27.72-.27.43-.53.85-.91,1.14-.16.18-.36.3-.56.41-.2.1-.38.28-.61.31-.43.16-.93.06-1.31-.16-.59-.36-1.07-.92-1.52-1.59l-.52-.79c-.16-.23-.29-.48-.4-.72-.11-.22-.23-.41-.32-.63-.35-.79-.16-1.13.27-1.56.1-.1.19-.21.3-.3.33-.29.89-.14,1.44.36.34.39.66.79.97,1.17.16.18.28.39.4.58l.18.28.04.07s.01,0,.01,0c0,0,.01,0,.02,0,.09,0,.09-.06.09-.06,0,0,.01.02.04,0,.09-.27.1-.84,0-1.39l.07-.02Z"/><path class="cls-2" d="M162.51,273.52c2.04-1.71,4.1-3.38,6.4-4.92.54-.4,1.24-.74,1.85-1.11.7-.26,1.42-.61,2.13-.77,1.43-.36,2.85-.53,4.25-.55,2.05-.07,4.04.11,6,.42,3.45.63,6.77,1.66,9.97,2.99,3.18,1.37,6.28,2.98,8.99,5.3.31.27.58.48.91.81.33.35.57.69.8,1.03.45.68.83,1.36,1.18,2.05.7,1.39,1.31,2.8,1.79,4.28l.18.57c.07.27.12.54.19.82.12.54.18,1.08.18,1.58,0,.5-.04.96-.18,1.35-.07.2-.16.38-.27.57-.12.17-.27.32-.45.47-.32.15-.7.3-1.01.23-.32-.04-.58-.15-.84-.33-.52-.35-1.06-.95-1.53-1.84-.19-.45-.4-.96-.53-1.38l-.28-.87c-.16-.58-.37-1.14-.45-1.74-.04-1.25-.18-1.04.57-.25.39.39.83.99,1.41,1.66.13.16.27.32.41.48.05.01.09,0,.11,0,.05-.02.06-.07.06-.07,0,0,0,0,0-.01h0s0,0,0,0h0s-.03-.1-.03-.1c-.11-.38-.24-.77-.38-1.16-.56-1.55-1.28-3.13-2.1-4.49-.2-.33-.42-.66-.61-.88-.05-.07-.08-.09-.11-.13l-.22-.19-.46-.4c-.58-.55-1.31-1.01-1.97-1.52-1.42-.92-2.89-1.82-4.46-2.57-4.06-2.08-8.78-3.32-13.37-3.86-2.51-.26-5.1-.28-7.39.39-1.1.38-2.15.9-3.21,1.68-.53.35-1.06.73-1.57,1.13-.52.39-1.04.77-1.55,1.19-2.53,2-4.98,4.13-7.37,6.32-3.62,3.32-7.18,6.75-10.51,10.32-2.59,2.77-4.94,5.66-7.23,8.61-.51.65-.99,1.29-1.48,1.96-1.88,2.42-2.53,3.13-3.51,3.24-.22.03-.47.1-.65.08-.62-.07-.25-1.36,1-3.31,3.79-5.7,8.58-11.05,13.59-16.17,3.74-3.8,7.65-7.46,11.72-10.96l.05.05Z"/><path class="cls-2" d="M257.07,263.51c-1.18,1.87-2.38,3.74-3.6,5.58-.59.93-1.28,1.84-1.93,2.76-.66.92-1.29,1.85-2.04,2.71-.53.64-1.04,1.29-1.55,1.94-.5.66-1.11,1.24-1.67,1.84-2,2.13-4.35,3.94-6.77,5.59-2.5,1.55-5.15,2.83-7.94,3.71-2.48.75-5.01,1.27-7.53,1.6-3.23.44-6.48.43-9.66.19-.99-.07-.88-.35-.06-.76.82-.39,2.37-1.04,4.18-1.29,3.21-.39,6.34-.75,9.34-1.52,3-.79,5.89-1.88,8.65-3.37,3.32-1.79,6.18-4.59,8.73-7.53,1.34-1.68,2.72-3.34,3.89-5.16,1.25-1.75,2.39-3.67,3.55-5.53,1.41-2.31,2.8-4.65,4.13-7.01,2.03-3.57,4.04-7.17,5.76-10.86,1.33-2.87,2.38-5.79,3.36-8.73.21-.65.38-1.29.61-1.93.81-2.39,1.21-3.07,2.29-3.35.24-.06.48-.17.7-.19.7-.08,1.08,1.14.69,3.08-.54,2.88-1.53,5.68-2.65,8.44-1.13,2.76-2.42,5.48-3.79,8.16-2.03,3.98-4.28,7.86-6.61,11.67l-.08-.04Z"/><path class="cls-2" d="M422.94,402.86l-7.76,16.04c-2.63,5.34-5.23,10.67-8.12,15.97-.53.97-1.07,1.94-1.69,2.91-.34.51-.57.93-1.06,1.55-.26.4-.6.72-.96,1.01-.18.15-.34.31-.53.44-.22.07-.42.15-.65.2-.45.09-.89.25-1.37.24l-.96.05-1.65.07-3.27.11c-15.29.27-30.53.23-45.79.29-6.77.01-13.57.13-20.29.24-4.31.06-8.64.23-12.96.18-4.32-.02-8.65-.07-12.96-.46-2.69-.38-2.33-.59-.06-1.28,1.14-.36,2.75-.74,4.7-1.15,1.95-.37,4.24-.64,6.72-.75,2.2-.08,4.4-.22,6.6-.25l6.6-.11c4.4-.06,8.81-.12,13.22-.18,8.82-.1,17.66-.11,26.53-.04,5.31.04,10.72-.05,16.17-.2,5.43-.16,10.94-.31,16.28-.61l.52-.05c.07,0,.13,0,.19-.01.12-.02.27.01.35-.11.05-.04.1-.08.13-.14.05-.07.05-.05.15-.2.17-.22.35-.57.53-.85.7-1.2,1.42-2.5,2.11-3.79,1.38-2.6,2.71-5.26,4.03-7.93,2.63-5.34,5.19-10.73,7.74-16.13,3.13-6.66,6.25-13.31,9.38-19.96,4.74-10.08,9.5-20.21,14.2-30.22,3.63-7.8,6.97-15.55,10.57-23.26.8-1.7,1.53-3.38,2.37-5.08,1.54-3.15,2.67-5.17,3.62-6.51.99-1.32,1.78-1.95,2.68-2.33.41-.17.86-.44,1.2-.49,1.1-.17.54,2.75-1.52,7.42-6.15,13.84-12.86,28.33-19.64,42.89-2.52,5.41-5.04,10.83-7.57,16.25-2.55,5.42-5.1,10.84-7.66,16.25l-.11-.04Z"/><path class="cls-2" d="M364.36,282.47c-2.94-.16-5.92.33-8.62,1.46-2.71,1.13-5.19,2.92-7.33,5.08-1.07,1.08-2.07,2.25-2.98,3.5-.47.61-.87,1.28-1.29,1.92l-.63.97-.55,1.02c-1.49,2.71-2.68,5.6-3.42,8.62-1.11,4.4-1.25,9-.76,13.49.49,3.96,1.62,7.85,3.36,11.45l.66,1.35.76,1.3c.49.88,1.04,1.7,1.6,2.51,1.17,1.6,2.52,3.08,3.98,4.49,2.93,2.8,6.26,5.29,9.6,7.84,1.67,1.28,3.34,2.59,4.97,3.98,1.62,1.39,3.18,2.8,4.71,4.27,2.71,2.62,5.34,5.39,7.56,8.51,2.25,3.09,4.08,6.53,5.22,10.21,1.43,4.86,1.2,9.93.14,14.67-.53,2.38-1.26,4.71-2.17,6.95-.46,1.12-.97,2.22-1.51,3.3-.57,1.07-1.21,2.1-1.88,3.1-1.76,2.46-1.73,1.93-.84-.42.79-2.42,2.14-6.76,3.18-11.91.48-2.28.72-4.58.83-6.85.1-2.27-.05-4.53-.55-6.65-.5-2.07-1.41-4.23-2.48-6.2-1.08-1.99-2.38-3.89-3.83-5.69-2.9-3.61-6.31-6.91-9.91-10.08-3.53-3.11-7.52-5.89-11.36-9.07-2.29-1.91-4.57-3.95-6.61-6.31-1.04-1.16-1.97-2.44-2.85-3.76-.8-1.34-1.63-2.67-2.28-4.09-2.8-5.6-4.16-11.92-4.09-18.14.15-6.85,2.04-13.64,5.5-19.53.92-1.44,1.81-2.89,2.88-4.23,1.06-1.34,2.21-2.62,3.47-3.79,2.52-2.34,5.48-4.3,8.79-5.45,4.06-1.42,8.48-1.66,12.66-.75,4.25.92,7.8,3.16,11.43,4.49,2.73,1.03,5.62,1.43,8.16.38,2.54-1,4.48-3.27,5.72-5.86,1.23-2.61,1.89-5.53,2.02-8.43.11-2.96-.15-5.98-.31-9.04-.11-2.38-.19-4.79.04-7.23.22-2.42.76-4.9,1.79-7.18,2.03-4.55,5.68-8.37,10.26-10.56,2.03-.94,4.15-1.6,6.4-1.84,4.18-.42,6.93.37,8.69,1.07.89.37,1.54.77,2.04,1.17.49.41.81.86,1.08,1.25.23.38.56.81.65,1.08.14.47-.52.37-1.86.11-.68-.11-1.49-.32-2.45-.56-.97-.21-2.1-.42-3.38-.54-3.79-.37-7.68.45-10.89,2.42-3.23,1.96-5.86,5-7.29,8.51-1.43,3.48-1.53,7.54-1.3,11.82.12,2.14.23,4.37.27,6.66,0,1.16,0,2.3-.09,3.52-.07,1.22-.27,2.43-.5,3.63-.77,3.53-2.2,7.05-4.88,9.94-1.33,1.43-3.04,2.63-4.97,3.34-1.92.71-4.01.94-5.95.69-3.9-.5-7.03-2.2-9.95-3.49-1.47-.66-2.89-1.25-4.29-1.65-1.42-.39-2.88-.63-4.36-.71v-.09Z"/><path class="cls-2" d="M381.41,313.52c-2.54,1.35-4.77,3.47-5.93,5.97-1.16,2.52-1.12,5.49-.03,8.18.8,1.99,2.12,3.69,3.73,5.33,2.77,2.92,6.25,5.35,9.63,8.1,1.68,1.38,3.36,2.84,4.85,4.52,1.5,1.66,2.82,3.58,3.71,5.66,1.64,3.68,2.21,7.77,1.84,11.65-.22,2.51-.76,4.93-1.47,7.29-.18.59-.37,1.17-.57,1.75l-.69,1.7c-.47,1.13-.97,2.24-1.48,3.34-.65,1.37-.78,1.1-.67-.21.05-.66.15-1.59.28-2.69.07-.56.15-1.15.23-1.77.04-.31.11-.63.14-.96.08-.32.15-.64.23-.98.58-2.34,1.02-4.7,1.17-7,.13-2.3,0-4.59-.51-6.77-.99-4.42-3.56-8.09-7.11-11.32-2.09-1.95-4.56-3.69-7.04-5.55-2.47-1.88-4.99-3.88-7-6.51-1.11-1.44-2.05-3.04-2.69-4.79-.63-1.75-.95-3.63-.86-5.52.14-3.8,2.06-7.36,4.74-9.77,1.64-1.49,3.51-2.75,5.61-3.54,2.09-.83,4.32-1.13,6.46-1.2,1.63-.04,3.22.05,4.78.14,1.55.09,3.14.23,4.55.12,2.91-.15,5.75-1.22,8.04-2.99,3.52-2.82,5.68-7.13,5.82-11.46l.04-.71c0-.23-.04-.47-.05-.7-.05-.47-.06-.93-.11-1.4-.59-3.46-1.08-4.45-.51-5.66.11-.26.17-.59.29-.78.2-.33.59-.21,1.21.33.32.26.65.65,1.02,1.15.33.51.58,1.18.88,1.92.71,2.24,1.09,4.71.78,7.16-.29,2.43-1,4.87-2.23,7.06-1.24,2.18-2.9,4.15-4.89,5.76-2.03,1.57-4.41,2.72-6.93,3.38l-1.42.27c-.47.1-.95.18-1.43.17-.94.03-1.98.11-2.8.04-1.72-.07-3.39-.2-4.98-.25-3.19-.1-6.08.21-8.58,1.61l-.05-.07Z"/><path class="cls-2" d="M260.71,179.86c-2.47,2.66-4.56,5.98-6.52,9.29-.71,1.22-1.32,2.49-1.98,3.74-1.17,2.19-2.29,4.42-3.31,6.69-1.02,2.24-1.81,4.59-2.61,6.99-.7,2.12-1.36,4.29-2.11,6.41-.48,1.36-.97,2.73-1.59,4.06-.67,1.3-1.4,2.59-2.44,3.66-.64.67-.73.44-.69-.41.03-.87.12-2.34.61-3.84,1.06-2.59,1.95-5.28,2.8-8.04.92-2.74,1.8-5.54,3.01-8.33,1.47-3.29,2.89-6.67,4.59-9.9,1.88-3.53,3.92-6.98,6.4-10.19.77-.99,1.59-1.95,2.52-2.85.49-.46.93-.86,1.59-1.29.72-.51,1.59-.84,2.39-.86.31-.04.61.06.9.12l.44.15c.13.08.2.24.3.35.35.5.56,1.08.56,1.73.03.32-.04.66-.05.98-.04.32-.14.7-.18.9-.13.48-.28.95-.44,1.4-.67,1.8-1.47,3.47-2.26,5.13-1.23,2.58-2.37,5.14-3.34,7.69-.22.56-.38,1.12-.56,1.67-.34,1.02-.5,1.63-.66,1.99-.1.2-.17.29-.3.43-.14.11-.29.23-.45.4-.12.13-.19.34-.26.5-.07.14-.15.2-.33.19-.15-.02-.46-.15-.67-.41-.55-.57-.59-1.56-.46-2.51.5-2.83,1.62-5.18,2.72-7.59,1.11-2.38,2.34-4.72,3.33-7.03.36-.86.68-1.72.89-2.5.02-.05.02-.09.03-.14v-.07s.02,0,.02,0c0,.01,0,0,0,0h0s.01-.03,0-.04c-.02-.02,0-.05-.1,0,.03-.04-.22.16-.35.26-.16.11-.31.27-.47.4-.31.29-.63.6-.93.93l-.06-.04Z"/><path class="cls-2" d="M259.6,194.53h.05s-.02.02.05,0l.24-.08.98-.3c.66-.2,1.33-.35,2.02-.49.69-.14,1.41-.25,2.16-.31.38-.03.77-.04,1.17-.03l.63.04c.18.03.57.06.81.14.81.17,1.55.53,2.13,1.08.28.28.52.59.71.95.11.17.1.38.15.56.04.19.08.38.06.59,0,.36,0,.71-.09,1.06-.03.18-.05.35-.11.53l-.18.52c-.22.53-.5,1.01-.81,1.43-.63.84-1.36,1.48-2.11,2.03-1.5,1.1-3.11,1.82-4.71,2.46-1.43.56-2.85,1.09-4.27,1.56-.91.32-1.84.56-2.79.74-.92.29-1.98,0-2.95-.11-.59.03-.53-.09-.07-.35.47-.2,1.14-1.43,2.09-1.91l1.29-.53.64-.28.65-.22c.87-.3,1.73-.62,2.57-.96,1.69-.67,3.34-1.41,4.86-2.24.91-.49,1.72-1.18,2.2-1.92.12-.18.23-.37.3-.55.04-.09.09-.2.1-.26,0-.02.02-.05.03-.11.02-.18.09-.4-.04-.56-.12-.18-.33-.29-.55-.33-.01,0-.17-.03-.29-.03-.12,0-.25-.02-.38,0-.26,0-.54.02-.83.05-1.15.12-2.35.45-3.56.79l-.56.17-.67.22-1.71.61c-.55.19-1.14.45-1.63.56-.51.14-.93.18-1.29.2-2.78.42-.09-4.44.95-6.83.79-1.72,1.44-3.46,2.23-5.17.17-.38.32-.76.52-1.13.34-.71.79-1.06,1.11-1.29.35-.22.67-.27,1.06-.2.17.03.36.04.51.1.48.21.51.9.27,2-.46,1.57-1.13,3.1-1.76,4.68-.33.78-.66,1.57-.99,2.36l-.24.56h0s0,0,0,0c0,0-.04.02-.07.08-.02.04,0,.06.08.06v.09Z"/><path class="cls-2" d="M353.46,382.26c-.53.59-1.19,1.03-1.88,1.27-.25.09-.48.22-.74.27-.92.18-1.83.09-2.66-.17-.36-.11-.73-.24-1.07-.43-.46-.19-.83-.69-.89-1.21-.01-.17.14-.18.36-.16.22.03.53,0,.71.04.34.03.55.21.87.28.31.08.64.15.99.22.43.08.87-.13,1.25-.31.43-.19.84-.45,1.19-.76.21-.2.41-.43.55-.69.22-.4.4-.86.39-1.33,0-.37-.22-.7-.36-.99-.03-.07-.08-.12-.1-.19-.1-.24.06-.39.49-.67l.29-.2c.32-.2.71-.22,1.01,0,.83.72.92,1.92.7,2.95-.17.78-.55,1.51-1.05,2.13l-.04-.03Z"/><path class="cls-2" d="M355.42,380.84c-.55,1.95-1.96,3.18-3.39,3.88-.52.26-1.08.53-1.67.62-1.04.16-2.1.09-3.09-.27-.99-.36-1.92-1-2.46-1.99-.46-.91-.53-1.86-.35-2.72.11-.56.36-1.1.77-1.54.4-.44,1-.73,1.58-.73.37,0,.3.27.15.62-.17.34-.22.84-.27,1.14-.13.53-.11,1.15.06,1.56.04.1.09.19.14.25.06.07.07.12.15.23.14.2.32.39.57.57.63.45,1.64.28,2.42,0,.9-.29,1.78-.91,2.21-1.7.27-.48.37-1.03.27-1.58-.14-.83-.73-1.49-1.57-1.5-.65-.02-1.28.45-1.74.93-.11.11-.18.24-.28.35-.39.36-.62.33-1.4-.09-.18-.1-.36-.18-.54-.28-.58-.32-.84-.96-.48-1.64.54-.98,1.48-1.73,2.67-2.15,1.16-.43,2.81-.41,4.17.43,1.01.6,1.71,1.62,2.03,2.6.33,1,.35,2.03.13,3.01h-.08Z"/><path class="cls-2" d="M434.43,201.44c.33-.24.62-.61.75-.95.04-.13.03-.26.03-.39.15-.47-.02-1.18-.53-1.68-.22-.23-.51-.38-.8-.51-.19-.08-.39-.12-.59-.19-.2-.08-.4-.17-.62-.25-.14-.06-.13-.17,0-.33.12-.15.38-.42.7-.48,1.1-.11,2.33.36,3.06,1.37.39.59.92,1.3.9,2.13,0,.9-.36,1.69-.8,2.31-.28.38-.63.74-1.06,1.03-.65.46-1.49.56-2.19.54-.55,0-1.1.01-1.63-.07-.11-.02-.24-.02-.35-.05-.41-.14-.44-.37-.24-.96.05-.13.09-.27.14-.4.19-.44.5-.73.78-.78.81-.1,1.4-.04,1.72-.1.21-.05.4-.03.69-.28l.04.04Z"/><path class="cls-2" d="M438.46,202.33c-.38.78-.93,1.48-1.63,2-.71.53-1.57.84-2.38.93-.59.07-1.18.1-1.74-.03-1.94-.48-3.47-2.07-3.8-3.86-.15-.78-.18-1.56-.03-2.3.16-.95.58-1.9,1.36-2.49.24-.19.39.05.45.4.05.35.11.83-.01,1.21-.46,1.4-.14,2.82.58,3.79.47.64,1.41.85,2.16.85.87.01,1.59-.32,2.1-1.03.31-.43.51-.98.52-1.52.02-.81-.32-1.59-1.08-1.91-.58-.26-1.28-.06-1.72.18-.1.06-.17.15-.25.2-.29.19-.42.07-1.15-.46l-.5-.35c-.28-.2-.47-.45-.52-.75-.05-.31.06-.65.35-.96,1.79-1.8,5.01-1.58,6.81.66.66.84.99,1.84,1.05,2.79.05.95-.14,1.85-.49,2.67l-.07-.02Z"/><path class="cls-2" d="M467.67,187.1c-.57.65-1.28,1.1-2.04,1.37-.28.09-.54.23-.84.26-1.06.15-2.09-.29-2.83-.83-.33-.25-.64-.51-.9-.81-.16-.2-.37-.37-.4-.65-.05-.27-.06-.53-.07-.77,0-.15,0-.13.12-.05.1.09.38.2.69.26.11.05.28.04.34.1.08.05.15.11.23.15.15.1.31.18.46.25.29.13.58.27.9.42.38.17.79,0,1.19-.07.44-.1.89-.31,1.25-.64.22-.2.42-.43.55-.7.21-.4.33-.89.25-1.36-.06-.37-.33-.67-.54-.93-.04-.06-.1-.11-.14-.17-.15-.21-.02-.41.31-.78l.23-.26c.25-.27.62-.38.99-.21,1.04.56,1.39,1.84,1.3,3-.06.87-.44,1.75-.99,2.44l-.04-.03Z"/><path class="cls-2" d="M468.7,187.68c-.49.58-1.08,1.08-1.75,1.43-.66.35-1.36.55-2.06.63-.51.07-1.02.13-1.53.05-.89-.13-1.79-.51-2.45-1.15-.68-.6-1.14-1.5-1.24-2.34-.11-.75.02-1.5.27-2.16.34-.84,1.03-1.61,1.91-1.81.27-.06.25.07.12.28-.15.19-.33.56-.52.88-.33.6-.31,1.31-.19,1.89.16.58.24,1.07.6,1.48.43.54,1.26.7,2.02.69.86,0,1.74-.3,2.36-.88.39-.36.72-.83.89-1.34.28-.74.22-1.66-.29-2.14-.41-.4-1.1-.46-1.52-.32-.1.02-.17.1-.24.11-.25.09-.35-.04-.91-.53l-.39-.32c-.22-.18-.35-.4-.35-.67,0-.27.16-.59.48-.83,1-.75,2.33-.73,3.4-.29.55.22,1.06.56,1.49,1.02.43.43.81,1.1.97,1.66.53,1.8-.07,3.52-1,4.71l-.05-.03Z"/><path class="cls-2" d="M364.43,160.46c-.47.5-1.09.82-1.71,1.02-.23.07-.45.17-.69.2-.85.11-1.74-.17-2.34-.63-.28-.2-.54-.42-.76-.68-.33-.3-.45-.8-.34-1.23.03-.14.13-.12.29-.05.15.07.43.15.61.23.17.06.24.15.33.24.09.09.19.16.3.24.21.15.44.27.68.39.3.15.65.02.97-.1.36-.12.7-.34,1.01-.61.2-.16.37-.35.51-.57.22-.33.4-.72.44-1.14.03-.33-.09-.66-.2-.96-.02-.07-.06-.13-.08-.2-.05-.25.1-.35.61-.48l.34-.09c.38-.09.74-.01.91.23.45.71.44,1.61.18,2.47-.19.64-.54,1.25-1.01,1.77l-.04-.03Z"/><path class="cls-2" d="M364.88,162.37c-1.02,1-2.46,1.56-3.92,1.36-.52-.07-1.05-.17-1.49-.43-.77-.45-1.36-1.09-1.74-1.81-.4-.71-.58-1.53-.49-2.33.03-.35.11-.7.22-1.03.13-.33.31-.62.52-.88.27-.33.61-.6.98-.8.36-.21.79-.33,1.21-.29.26.03.2.19.02.37-.18.18-.4.45-.62.66-.42.41-.43,1.11-.41,1.51-.03.44.1.85.19,1.37.16.63.81,1.04,1.34,1.2.58.21,1.29.1,1.93-.3.39-.24.72-.6.92-1.01.31-.61.31-1.36-.1-1.98-.31-.48-.88-.74-1.36-.83-.11-.03-.22,0-.31-.05-.35-.1-.42-.26-.54-.92l-.09-.44c-.09-.48.19-.96.83-1.04.95-.14,1.91.25,2.66.86.75.61,1.33,1.5,1.57,2.54.18.77.14,1.64-.11,2.38-.25.75-.67,1.4-1.17,1.93l-.05-.04Z"/><path class="cls-2" d="M174.73,161.03c2.5-1.4,5.59-2.3,8.66-1.95.76.07,1.5.24,2.23.42l1.07.34c.36.14.87.34,1.21.57,1.49.9,2.48,2.01,3.37,3.13,1.74,2.25,2.99,4.64,4.11,7.07,1.11,2.43,2.05,4.9,2.87,7.41,1.19,3.66,2.24,7.37,2.88,11.19.28,1.69.49,3.38.59,5.12.09,1.77.03,3.51-.15,5.23-.35,3.44-1.11,6.81-2.32,10.04-1.22,3.22-2.89,6.29-5.04,9-2.16,2.7-4.8,5.03-7.82,6.73l-2.05,1.05c-.7.3-1.43.54-2.15.81l-1.08.39-1.11.28c-.74.19-1.48.39-2.24.48-3,.52-6.05.63-9.03.36-3.84-.31-7.63-1.15-11.24-2.54-.45-.18-.9-.36-1.34-.55l-1.3-.65c-.88-.41-1.69-.96-2.52-1.46-.8-.57-1.6-1.12-2.26-1.86-.34-.36-.71-.67-1.01-1.06l-.91-1.15c-1.23-2.14-.93-1.81.47-.45.41.29.89.65,1.45,1.01.63.31,1.25.71,2.04.99,1.47.72,3.24,1.43,5.14,2.2,3.39,1.35,6.99,2.29,10.63,2.7,3.64.41,7.34.33,10.84-.5,3.48-.84,6.79-2.36,9.55-4.65,2.79-2.26,4.97-5.26,6.64-8.53,1.99-3.92,3.19-8.41,3.6-12.95.21-2.29.16-4.49-.16-6.79-.3-2.29-.74-4.57-1.29-6.82-1.2-4.95-2.83-9.84-5.02-14.41-1.1-2.27-2.37-4.48-3.93-6.28-.78-.89-1.65-1.63-2.53-1.94-1.1-.4-2.25-.61-3.4-.63-2.84-.09-5.63,1.25-8.06,3.06-1.22.9-2.41,1.96-3.48,3.02-1.03,1.08-1.98,2.34-2.9,3.61-1.39,1.98-2.79,3.97-4.18,5.96-.72,1-1.46,1.99-2.27,2.95-.81.96-1.67,1.9-2.76,2.72-.55.41-1.17.79-1.95,1-.19.05-.41.08-.61.12h-.54c-.36-.01-.72.04-1.07-.06-1.45-.18-2.68-.9-3.73-1.65-2.11-1.53-3.66-3.45-5.45-4.83-1.36-1.13-2.84-1.68-4.25-1.4-1.58.35-2.99,1.17-3.79,2.48-1.64,2.6-1.25,6.46.41,9.17.21.28.38.59.61.84.24.23.45.51.71.69.46.37,1.12.79,1.77,1.11,2.4,1.22,4.15,1.1,5.51,1.21.67.04,1.24.09,1.71.19.48.12.86.29,1.21.48.31.17.71.35.88.52.29.29-.18.54-1.22.91-.53.21-1.21.37-2.08.51-.87.14-1.96.26-3.23.14-1.9-.16-3.77-.87-5.35-1.84-.39-.2-.83-.57-1.24-.89-.43-.33-.73-.73-1.1-1.1-.32-.39-.61-.8-.9-1.22-.25-.43-.49-.86-.73-1.3-.85-1.79-1.32-3.75-1.32-5.8,0-2.03.54-4.25,1.95-6.1.69-.92,1.59-1.72,2.58-2.28,1.01-.61,2.01-.93,3.16-1.2.64-.08,1.28-.19,1.93-.08.32.04.65.07.96.14l.89.28c.62.18,1.06.49,1.59.75.46.29.9.59,1.31.91,1.59,1.26,2.8,2.58,3.99,3.69,1.18,1.09,2.35,2.02,3.37,2.25.19.02.37.1.56.11.19,0,.37,0,.56.01.07.01.36-.08.72-.32.73-.47,1.56-1.35,2.32-2.26,1.54-1.85,2.98-4,4.46-6.14,1.5-2.15,2.95-4.36,4.92-6.51.53-.56,1.03-1.01,1.53-1.49.52-.46,1.03-.92,1.58-1.36,1.09-.88,2.25-1.72,3.53-2.44l.05.07Z"/><path class="cls-2" d="M200.57,135.85c2.95,2.39,5.24,5.51,6.72,8.9.25.63.52,1.24.78,1.86.29.61.42,1.27.61,1.91.63,2.28.83,4.63.86,6.94-.07,1.16-.11,2.32-.27,3.46-.19,1.14-.31,2.28-.64,3.38l-.36,1.48-.47,1.45c-.17.48-.3.97-.52,1.43l-.63,1.38c-.14.29-.26.59-.41.88l-.5.84c-.35.55-.62,1.14-1.06,1.64-.42.5-.8,1.03-1.27,1.48-.52.41-1.07.77-1.59,1.15-.67.45-.62.31-.35-.35.14-.33.32-.8.51-1.35l.15-.42c.05-.15.06-.34.13-.47.13-.29.27-.59.45-.87,1.19-2.06,2.03-4.3,2.57-6.62.63-2.28,1.06-4.65,1.17-7.07.16-2.89-.4-5.91-1.36-8.68-1.06-3.05-2.77-5.88-5.09-8.12-1.43-1.37-3.04-2.62-4.83-3.45-1.36-.63-2.79-1.12-4.28-1.4-1.49-.25-3.01-.29-4.49-.09-2.31.33-4.42,1.34-6.28,2.6-.4.3-.77.62-1.18.9-1.48,1.11-2.02,1.38-3.01.96-.22-.09-.45-.14-.63-.24-.58-.29-.51-1.43.59-2.64,3.22-3.61,8.64-5.72,13.96-5.3,3.95.27,7.79,1.91,10.75,4.36l-.05.07Z"/><path class="cls-2" d="M183.44,286.21c1.56.04,3.17-.04,4.76-.22l1.2-.14c.12-.01.16-.02.34-.04l.5-.02c.34-.02.66,0,.97.08,1.27.25,2.19.89,2.92,1.48,1.08.89,1.98,1.76,2.8,2.61.73.74.61.67.86.9.19.17.44.36.74.4.12,0,.27.06.37,0,.1-.07.12-.18.12-.29,0-.21-.06-.44-.14-.67-.04-.12-.09-.24-.14-.36l-.09-.19-.16-.31c-.3-.55-.63-1.08-.98-1.61-.98-1.51-2.24-2.97-3.57-3.96-.4-.27-.9-.49-1.43-.69-.52-.21-1.07-.4-1.64-.59-1.12-.38-2.3-.69-3.41-1.32-.64-.58-.55-.43.17-.63.71-.19,1.97-.57,3.4-.35,1.27.19,2.58.38,3.97,1.13.78.43,1.29.88,1.81,1.32.51.45.99.93,1.44,1.42.9.99,1.72,2.03,2.39,3.19.18.31.31.53.52.92.28.51.54,1.01.75,1.52.42,1,.71,1.99.66,2.75-.03.57-.12,1.05-.4,1.52-.14.23-.36.48-.63.63-.27.12-.56.2-.84.3-1.34.17-2.7-.19-4.11-1.22-.34-.28-.69-.54-1.02-.83l-.69-.65-1.12-1.14c-1.11-1.17-2.31-2.25-3.26-2.38-.11.01-.23.01-.34,0-.14,0-.41.04-.6.06l-1.28.16c-.86.07-1.71.18-2.57.21-2.12.12-4.26.08-6.41-.22-.82-.13-1.64-.29-2.44-.52-.39-.12-.81-.25-1.17-.38-.25-.08-.43-.2-.66-.18-.22.08-.35.18-.6.35-.29.21-.59.44-.89.67-.59.47-1.16.96-1.71,1.47-1.73,1.61-3.17,3.45-4.43,5.33-.27.42-.5.85-.75,1.26-.47.78-.73,1.27-1.06,1.57-.35.28-.66.41-1.09.49-.19.03-.39.11-.55.12-.28.02-.46-.19-.57-.64-.05-.22-.09-.51-.09-.85,0-.33.13-.66.25-1.05.86-2.22,2.21-4.15,3.71-5.94,1.54-1.78,3.18-3.4,5.15-4.9l.35-.24c.18-.12.36-.26.56-.35.39-.18.78-.38,1.19-.51.35.01.69-.04,1.03.04.36.08.68.17.98.29l.57.2.46.15c.61.18,1.22.34,1.87.45,1.28.23,2.63.33,3.99.33v.08Z"/><path class="cls-2" d="M129.26,346.4c-2.86.84-5.92,1.12-8.93.91l-2.26-.27-2.2-.55c-.75-.15-1.44-.46-2.13-.74l-1.05-.42c-.35-.13-.7-.28-1.01-.48-1.3-.73-2.63-1.42-3.78-2.35-.59-.45-1.21-.84-1.77-1.35l-1.66-1.57c-2.06-2.25-3.57-4.88-4.67-7.61-1.55-4.01-2.33-8.2-2.56-12.36-.22-3.67-.04-7.32.32-10.92.35-3.61.95-7.17,1.68-10.7,1.45-7.06,3.5-13.95,5.89-20.71,2.11-6,4.55-11.91,7.18-17.65,3.38-7.35,7.17-14.66,12.38-20.92,1.7-1.89,1.49-1.61.6.36-.45.98-1.05,2.38-1.77,4.07-.72,1.68-1.65,3.59-2.68,5.65-.48.9-.89,1.83-1.36,2.73-.48.89-.94,1.81-1.39,2.72-.93,1.81-1.78,3.66-2.65,5.5-1.71,3.7-3.28,7.46-4.76,11.26-2.95,7.6-5.62,15.35-7.6,23.3-1.2,4.75-2.07,9.69-2.5,14.68-.4,4.98-.45,10.03.36,14.86.4,2.67,1.15,5.24,2.16,7.67,1.02,2.44,2.53,4.6,4.36,6.4.87.94,2.01,1.67,3.07,2.47.51.43,1.13.68,1.69,1.03l.86.49.43.24.46.18,1.82.74c.61.23,1.26.34,1.89.52.32.08.63.17.95.24l.98.11c.65.05,1.3.22,1.96.18,3.23.11,6.51-.55,9.58-1.79,3.08-1.24,5.98-2.95,8.7-4.92,4.13-2.99,7.88-6.55,11.32-10.38,3.45-3.82,6.58-7.93,9.4-12.2,1.38-2.11,2.7-4.24,3.89-6.43.59-1.09,1.16-2.19,1.69-3.3.25-.55.51-1.11.73-1.66.13-.33.17-.43.21-.57.04-.14.09-.28.11-.42,0-.08.05-.17,0-.24-.05-.07-.12-.12-.19-.17-.14-.1-.29-.17-.43-.25l-1.72-.93-3.85-2.06c-1.55-.85-3.07-1.7-4.59-2.68-2.81-1.83-4.53-3.33-5.57-4.57-1.04-1.24-1.39-2.19-1.43-3.06-.03-.39-.08-.88,0-1.14.15-.46.67-.18,1.58.48.92.66,2.24,1.78,4.11,3.1,2.28,1.64,4.8,3.09,7.39,4.5,1.32.7,2.64,1.41,3.98,2.11l1.02.55.52.29.68.39c.61.39,1.25.77,1.69,1.28.24.24.36.53.46.84l.04.12.02.06v.03s.01.01.01.01h0s.16-.04.09-.01l.04.24.07.47c-.07.48-.2.95-.29,1.43-.07.46-.33,1.01-.47,1.38-.22.57-.46,1.07-.7,1.59-.48,1.03-.99,2.02-1.52,3-1.06,1.96-2.19,3.87-3.39,5.75-2.4,3.75-5.04,7.38-7.9,10.85-3.65,4.38-7.61,8.56-12.14,12.19-4.49,3.64-9.59,6.77-15.39,8.46l-.04-.08Z"/><path class="cls-2" d="M425.3,120.31c-.8-1.34-1.11-2.86-1.07-4.3.02-.26.02-.52.02-.79.03-.26.06-.51.11-.77.38-1.79,1.21-3.38,2.24-4.76l.71-.9c.23-.3.53-.55.78-.83.32-.36.71-.66,1.08-.97.18-.17.39-.28.62-.38.22-.1.45-.2.67-.29.29-.11.34.07.28.41-.07.33-.18.92-.49,1.31-.6.66-1.12,1.35-1.62,2.04-.27.33-.55.66-.78,1.02-.27.34-.49.71-.72,1.08-.54.9-.78,1.99-.86,3.02-.1,1.14-.03,2.3.41,3.33.1.34.32.61.48.91.19.29.44.53.66.8.77.73,1.77,1.26,2.87,1.53.86.21,1.74.22,2.64.25.2,0,.39.02.59.05.75.12,1,.32,1.07.83.02.12.04.23.04.34-.02.37-.34.62-.89.71-.82.15-1.69.16-2.59.04-.9-.11-1.84-.33-2.76-.71-1.39-.55-2.7-1.63-3.53-2.95l.04-.03Z"/><g class="cls-3"><path class="cls-2" d="M402.92,167.86c-.32,0-.93.16-1.5.38-.58.22-1.2.49-1.82.78-.63.29-1.27.59-1.96.88-.34.15-.71.29-1.1.41-.16.06-.52.15-.81.2-.3.05-.6.09-.9.07-.86-.05-1.67-.51-2.19-1.19-.52-.69-.69-1.61-.57-2.49.22-1.3.69-2.12,1.17-3,.5-.84,1.04-1.61,1.62-2.35,1.17-1.46,2.33-2.85,3.89-4.06,1.3-1.01,2.62-2,4.03-2.83.91-.52,1.83-1.02,2.8-1.42.93-.51,2.08-.47,3.11-.58.66-.03.58,0,.15.4-.47.31-1.05,1.52-1.97,2.13-1.72.96-3.29,2.13-4.9,3.21-.4.28-.79.57-1.17.87-.37.29-.81.63-1.07.88-.67.64-1.4,1.37-2.08,2.09-.82.87-1.55,1.86-2.11,2.89-.28.51-.52,1.04-.66,1.52-.16.58-.15.63-.1.87.07.22.3.41.55.37.1.03.88-.24,1.45-.49,1.24-.53,2.5-1.19,3.92-1.71.44-.16.9-.3,1.41-.4.46-.09,1.19-.15,1.8.05.62.18,1.14.64,1.42,1.22.14.29.24.59.3.89.06.28.07.49.11.74.16,1.46-.08,2.89-.42,4.21-.34,1.32-.79,2.57-1.16,3.78-.29.94-.39,1.8-.38,2.74.01.9.13,1.85.4,2.53.13.33.21.37.32.48.21.19.39.18.54.27.16.1.32.24.59.49.12.11.29.2.42.31.22.18.25.44-.05.88-.16.2-.35.54-.72.66-.18.08-.38.16-.59.24-.22.03-.46.04-.72.04-.75-.07-1.46-.48-1.96-1.1-.25-.29-.47-.7-.61-1.01-.12-.3-.26-.64-.32-.9-.31-1.14-.37-2.21-.34-3.28.02-.54.07-1.07.17-1.62.08-.54.25-1.15.38-1.58.29-.94.57-1.84.88-2.68.45-1.25.8-2.42.88-3.52.02-.28.03-.55,0-.81-.04-.33-.05-.37-.05-.37,0-.03-.02-.06-.07-.06v-.07Z"/></g><path class="cls-1" d="M442.2,100.05c-1.55.36-5.9,3.37-8.23,6.82,0,0-7.97-1.25-10.8,6.28-2.82,7.53-.75,8.88,1.88,9.32,2.63.45,4.48,3.29,4.48,3.29,0,0-6.69,5.22-4.64,12.04,2.3,7.68,14.36,7.1,14.36,7.1,0,0-12.22,14.51-14.2,14.91s-26.12-10.48-26.12-10.48l2.37-15.84s5.58-17.99,7.9-21.1c2.32-3.11,20.63-18.65,20.63-18.65l12.37,6.31Z"/><path class="cls-2" d="M434.34,91.26c.53-.29.95-.45,1.42-.64.46-.18.92-.36,1.39-.52.34-.12.65-.29,1-.39,1.22-.33,2.45-.58,3.7-.69.55-.06,1.09-.16,1.62-.24.35-.04.69-.09,1.04-.1.35-.06.71.15,1.06.25.22.09.19.19.03.42-.12.16-.24.32-.33.45-.08.11-.16.2-.22.28-.04.05-.08.08-.12.14-.04.02-.09.04-.13.06-.64.22-1.27.42-1.91.55-.64.14-1.28.29-1.95.35-.81.07-1.56.45-2.32.73-.84.31-1.67.65-2.48,1.06-.49.24-.92.48-1.13.75-.15.18-.23.39-.2.68.03.3.17.65.38.99.32.53.81.92,1.28,1.27.11.08.23.13.32.21.37.29.38.5.07,1.08-.07.13-.13.27-.21.4-.26.44-.71.63-1.16.43-.66-.29-1.25-.76-1.73-1.33-.49-.6-.86-1.16-1.17-2.07-.23-.64-.29-1.72.15-2.55.46-.89,1.07-1.29,1.57-1.62l.03.05Z"/><path class="cls-2" d="M440.11,92.03c-.61.25-1.27.48-1.83.86-.21.13-.37.32-.57.46-.69.53-1.32,1.2-1.74,2-.2.35-.3.74-.38,1.13-.07.5-.13.99-.23,1.52-.04.16-.21.17-.42.05-.21-.12-.5-.4-.57-.76-.16-1.26.28-2.55,1-3.54.45-.59.84-1.24,1.37-1.78.58-.59,1.27-1.06,1.97-1.45.44-.23.9-.42,1.36-.59.69-.27,1.41-.45,2.1-.66.54-.17,1.04-.42,1.57-.62.12-.04.23-.1.35-.13.45-.12.61.02.78.54.04.12.08.24.11.36.1.4-.03.77-.32.95-.85.5-1.76.74-2.64,1.01-.65.2-1.31.41-1.91.69l-.02-.04Z"/><path class="cls-2" d="M425.39,122.56c-1.48-1.15-2.45-2.74-2.98-4.39-.2-.6-.39-1.21-.46-1.84-.11-1.11,0-2.24.33-3.3.34-1.07.89-2,1.52-2.82.55-.73,1.16-1.4,1.79-2.01.4-.39.82-.8,1.32-1.14.49-.36,1.16-.51,1.78-.5.4.03.32.22.1.51-.11.15-.24.35-.37.58-.07.13-.13.24-.19.35-.03.06-.07.11-.09.18l-.13.13c-.64.6-1.33,1.51-1.91,2.31-.62.78-1.16,1.58-1.54,2.43-.5,1.02-.41,2.28-.16,3.42.27,1.27.9,2.48,1.81,3.4.56.56,1.24,1.02,2.03,1.36,1.17.51,2.54.9,3.85,1.06,1.03.11,2.03-.03,2.93-.27l.57-.19c.69-.22.96-.11,1.41.46.1.13.22.25.31.39.31.43.17,1.04-.52,1.48-1.02.59-2.21.85-3.36.91-1.16.04-2.28-.15-3.34-.4-1.55-.37-3.24-.94-4.75-2.06l.04-.06Z"/><path class="cls-2" d="M425.06,121.12c-1.04-1.28-1.76-2.92-1.88-4.59-.05-.6-.1-1.2-.02-1.79.3-2.08,1.35-3.89,2.65-5.34.58-.64,1.23-1.23,1.91-1.74.44-.32.89-.65,1.39-.87.26-.1.51-.2.79-.24.28-.03.56-.05.84-.06.35,0,.3.01.1.26-.1.12-.23.31-.36.57-.07.12-.13.27-.21.4-.08.11-.18.22-.28.32-.73.65-1.47,1.22-2.07,1.94-.61.69-1.24,1.38-1.75,2.19-.63.95-.83,2.16-.87,3.27-.06,1.24.26,2.45.95,3.52.42.66.96,1.27,1.6,1.77.96.77,2.08,1.38,3.29,1.73.94.28,1.94.28,2.91.39.22.02.43.01.65.04.8.14,1.03.41,1.13.99.02.13.06.27.07.4.03.43-.36.76-1.01.91-1.92.32-4-.09-5.97-1.02-1.48-.69-2.81-1.73-3.9-3l.04-.04Z"/><path class="cls-2" d="M395.89,129.72c.9-.67,1.76-1.42,2.57-2.22.31-.28.54-.63.82-.94,1-1.08,1.93-2.25,2.66-3.55.34-.57.59-1.19.85-1.79l.42-1.2c.16-.39.38-.77.59-1.16.15-.24.27-.18.42.1.14.27.38.78.41,1.33-.17.91-.43,1.81-.78,2.67-.37.85-.84,1.66-1.4,2.41-.65.9-1.23,1.9-1.94,2.78-.39.49-.82.94-1.24,1.39-.46.42-.9.86-1.38,1.25l-.89.72-.92.67c-.94.67-1.93,1.26-2.93,1.82-.78.41-1.51.91-2.32,1.27-.18.08-.35.16-.54.2-.71.19-.97.13-1.23-.19-.06-.07-.13-.14-.17-.21-.15-.25.05-.58.46-.91.31-.23.61-.46.91-.72l.94-.62c.31-.22.62-.43.94-.63.31-.22.62-.44.95-.62.49-.28.94-.61,1.43-.9.45-.34.93-.64,1.36-1.01l.04.04Z"/><path class="cls-2" d="M397.89,129.34c.16-.07.33-.15.48-.23.05-.03.07-.09.13-.12.21-.1.43-.18.62-.29.08-.05.13-.13.17-.21.05-.11.04-.26.25-.24.13,0,1.25.99,1.21,1.12-.1.22-.27.38-.58.44-.19.03-.21.2-.32.3-.12.11-.25.21-.38.31-.08.06-.16.12-.23.19-.11.1-.26.18-.33.31-.06.1-.02.27-.03.4,0,.03.01.07,0,.09-.03.09-.15.04-.56-.25l-.28-.2c-.31-.23-.54-.45-.59-.58-.15-.37-.08-.58.04-.76.08-.14.23-.22.36-.32l.04.03Z"/><path class="cls-2" d="M449.64,144.45c-.12-1.24-.17-2.46-.41-3.68-.08-.46-.24-.85-.34-1.24-.17-.68-.43-1.21-.76-1.51-.08-.09-.17-.16-.29-.22-.07-.04-.08-.04-.11-.06-.02-.03-.06-.03-.12-.04-.21-.03-.56.06-.89.22-.59.28-1.15.74-1.65,1.23-.66.64-1.17,1.37-2.08,1.87-.21.21-.22.17-.19-.11.01-.14,0-.36-.03-.65,0-.14-.04-.31-.02-.46.03-.14.08-.28.15-.41.46-.94,1.12-1.74,1.9-2.5.4-.38.84-.73,1.44-1.02.14-.08.31-.14.48-.2.16-.06.35-.11.57-.13.37-.09,1.02.02,1.29.14.85.28,1.55.95,1.97,1.59.45.65.71,1.31.89,1.94.35,1.35.59,2.69.69,4.05.07.83.09,1.66.11,2.48.04,1.25,0,2.49.02,3.72.03.95.16,1.89.15,2.83,0,.21.02.41,0,.62-.07.77-.3,1.01-.76,1.15-.11.03-.21.08-.32.09-.34.05-.63-.28-.82-.84-.23-.84-.37-1.68-.5-2.53-.08-.85-.13-1.71-.18-2.56-.08-1.27-.14-2.53-.29-3.78h.06Z"/><path class="cls-2" d="M449.61,149.47c0-.56.03-1.13-.02-1.69-.02-.57-.06-1.13-.14-1.69-.05-.41-.18-.8-.26-1.2-.23-1.43-.52-2.87-1.13-4.17-.14-.28-.29-.57-.45-.84l-.56-.75c-.24-.32-.58-.53-.84-.83-.12-.16-.25-.32-.38-.47-.14-.15-.22-.41-.35-.61-.14-.29-.13-.26.16-.33.15-.04.38-.11.7-.21.29-.07.64-.09.95-.01.45.25.88.57,1.28.9.36.36.73.73,1.06,1.12.29.41.52.86.76,1.3.19.46.35.92.49,1.39.15.57.33,1.12.55,1.67.17.56.33,1.12.46,1.69.21,1.26.34,2.51.38,3.77.02.77.02,1.54-.04,2.31-.04,1.16-.22,2.32-.35,3.47-.04.45-.09.89-.13,1.35-.02.45-.09.91-.2,1.36-.05.2-.06.4-.13.6-.29.72-.55.89-1.13.78-.13-.02-.27-.04-.4-.08-.42-.14-.66-.56-.64-1.04,0-1.46.16-2.89.26-4.39.04-1.11.09-2.24.04-3.37h.07Z"/><path class="cls-2" d="M397.18,156.06c1.45-1.05,3.06-1.98,4.93-2.52.67-.2,1.29-.37,1.94-.44,2.29-.23,4.53-.08,6.74.33.98.19,1.97.38,2.92.75.6.25,1.25.48,1.78.93.25.25.5.48.69.79.11.13.17.32.21.5.03.19.13.32.19.48.15.39,0,.38-.38.26-.21-.03-.35-.2-.81-.1-.36.03-.63-.02-.94-.04-.52-.05-.92-.32-1.43-.41-.49-.13-1.02-.21-1.54-.36-1.05-.25-2.17-.44-3.33-.6-1.39-.19-2.84.09-4.21.36-.76.18-1.43.3-2.12.61-.69.28-1.37.65-2.03,1.07-.81.53-1.6,1.11-2.34,1.77-1.11.99-2.19,2.08-3.07,3.3-.68.95-1.16,2-1.67,3.01-.12.22-.2.45-.31.67-.47.8-.8.96-1.4.92-.14,0-.28,0-.41-.03-.42-.08-.6-.59-.52-1.4.22-1.14.64-2.24,1.19-3.28.59-1.01,1.26-2,2.03-2.91,1.13-1.36,2.42-2.6,3.85-3.72l.05.05Z"/><path class="cls-2" d="M401.55,152.78c.6-.13,1.2-.24,1.79-.33.22-.04.42-.12.64-.14.78-.04,1.55-.02,2.31,0,.34,0,.66,0,1,0,.42-.01.85-.03,1.27.12.13.05.11.25,0,.47-.11.22-.3.49-.53.56-.4.12-.8.23-1.19.32-.39.07-.8.07-1.21.07-.5-.03-.97.21-1.45.3-.53.11-1.07.22-1.6.37-.33.09-.65.18-.97.3-.48.18-.97.36-1.42.6-.34.2-.62.51-.9.78-.06.06-.12.13-.18.19-.25.2-.41.14-.76-.25l-.24-.26c-.25-.31-.32-.66-.17-.9.44-.73,1.11-1.23,1.84-1.62.56-.26,1.16-.44,1.74-.61l.02.05Z"/><path class="cls-2" d="M389.88,167.41c.32-.77.69-1.43,1.04-2.1.13-.25.22-.51.37-.74.52-.83,1.07-1.64,1.61-2.44.24-.35.45-.73.67-1.09.29-.46.58-.93.99-1.3.13-.12.28,0,.38.24.1.23.17.59.06.88-.37,1.04-.92,1.94-1.52,2.85-.37.54-.58,1.19-.84,1.79-.3.66-.63,1.33-.88,1.98-.16.4-.3.81-.38,1.22-.13.62-.19,1.25,0,1.81.14.44.49.78.78,1.02.07.05.14.09.2.14.2.21.16.42.01.85l-.1.3c-.11.31-.44.51-.91.41-.66-.19-1.19-.72-1.5-1.3-.32-.59-.48-1.24-.51-1.9-.04-.97.2-1.85.48-2.63h.04Z"/><path class="cls-2" d="M399.45,181.82c.07-.9.28-1.72.5-2.49.08-.28.11-.57.21-.84.33-.94.74-1.84,1.06-2.77.15-.42.29-.82.44-1.23.17-.53.36-1.05.61-1.56.08-.16.14-.12.22.05.07.17.21.47.23.8.03.59.06,1.17.04,1.75-.01.58-.23,1.11-.4,1.65-.24.64-.28,1.37-.45,2.02-.18.72-.34,1.42-.4,2.12-.04.43-.04.85.02,1.26.07.6.27,1.22.67,1.68.3.37.75.54,1.13.63.08,0,.17.02.25.03.28.07.33.23.37.78l.03.38c.03.41-.21.78-.7.83-.71.05-1.41-.24-1.97-.65-.57-.42-.99-.98-1.31-1.57-.23-.45-.39-.93-.49-1.43-.09-.48-.1-.95-.09-1.41h.05Z"/><path class="cls-2" d="M382.97,137.87c-.09-.86.08-2.01.28-3.11.09-.55.22-1.11.35-1.67.07-.27.12-.56.2-.82l.16-.52c.39-1.26.85-2.5,1.4-3.7.39-.88.76-1.78,1.25-2.62,1.76-2.94,4.19-5.53,7.13-7.32,1.31-.78,2.67-1.45,4.08-2,1.79-.62,3.72-1.46,5.66-.54.59.23.51.43.07.98-.22.3-.53.59-.85,1.14-.34.42-.73.71-1.17.89-3.21.78-6.01,2.18-8.69,4.25-1.6,1.27-2.69,3.18-3.66,5.06-.54,1.04-1.01,2.13-1.43,3.24-.21.55-.41,1.12-.58,1.69l-.16.48-.12.41c-.1.35-.19.74-.26,1.15-.04.21-.07.42-.07.64.12.04.3-.13.45-.2.48-.28,1-.56,1.57-.86l1.44-.78,1.58-.82c1.64-.84,3.25-1.76,5.08-2.4.4-.14.8-.29,1.23-.39,1.62-.31,2.23-.03,2.52.98.07.22.15.44.18.66.07.7-.49,1.38-1.36,1.64-2.61.87-5.44,2.13-8.28,3.6l-1,.54c-.55.3-1.08.64-1.62.97l-1.62,1.03c-.26.13-.52.28-.77.39l-.58-.02-.93-.03c-.14,0-.27,0-.38-.02-.06,0-.11-.02-.15-.05l-.07-.04-.03-.02-.02-.02h0s-.07.09.07-.1h0s0,0,0,0h0s-.97-1.61-.97-1.61l.09-.08Z"/><path class="cls-2" d="M446.84,161.08c1.18-1.9,2.04-4.18,2.6-6.55.19-.87.26-1.76.4-2.64.54-3.11.7-6.35.27-9.5-.17-1.4-.55-2.78-1.1-4.03-.36-.8-.8-1.54-1.24-2.26-.49-.69-.95-1.34-1.53-2.08-.37-.46-.35-.45.25-.51.31-.04.78-.09,1.34,0,.29.03.58.11.87.23.29.13.53.32.77.54.84.77,1.55,1.67,2.01,2.64.51.96.89,1.95,1.19,2.95.63,2,.85,4.06.79,6.1-.08,2.43.07,4.94-.32,7.4-.42,2.69-1.17,5.34-2.36,7.85-.19.38-.39.76-.59,1.14l-.34.55c-.12.2-.3.49-.48.71-.36.45-.69.97-1.06,1.36-.39.37-.75.78-1.15,1.1l-.1.09c-.28.2-.57.43-.84.5l-.41.16c-.07.02-.13.06-.21.08-.08.02-.18-.03-.23-.07-.45-.36-.73-.86-1.02-1.55-.28-.7-.46-1.59-.66-2.4-.17-.68-.33-1.36-.49-2.03-.47-1.8-1.12-3.51-1.79-5.19-.16-.36-.31-.72-.46-1.08-.26-.68-.4-1.13-.36-1.5.04-.37.24-.66.56-.98.15-.14.28-.31.42-.43.25-.2.55-.21.92-.05.37.15.76.5,1.05,1.02.89,1.54,1.52,3.19,2.05,4.87.26.84.5,1.69.72,2.54l.27,1.09h0s-.03.08,0,.08c.01.02.03.01.05.01h.03s0-.02.01-.03h.02s.08-.16.08-.16l.08.04Z"/><path class="cls-2" d="M398.72,167.71c.16-.08.36-.15.53-.23.2-.08.31-.14.66-.25.27-.09.67-.18,1.14-.17.28.03.5.02.82.14.31.11.59.24.84.46.53.41.75.9.89,1.26.14.38.19.69.21.96.05.55.02.98-.02,1.4-.2,1.61-.62,2.92-1.04,4.25-.43,1.31-.92,2.61-1.41,3.84-.41,1.06-.72,2.27-.81,3.35-.03.39-.02.76.03,1.08.05.3.17.56.2.62.03.05.09.07.12.12.08.03.23.16.32.19.22.13.39.14.58.17.32.03.82-.14,1.35-.54.53-.38,1.05-.92,1.54-1.51.98-1.2,1.85-2.61,2.66-4.07l1.19-2.25c.22-.39.37-.73.77-1.34.4-.54.93-.98,1.5-1.28.57-.3,1.24-.41,1.85-.23.62.16,1.15.56,1.59,1.04.23.25.42.49.58.72.14.2.27.39.38.58l.67,1.11c.19.31.39.62.56.87.17.23.24.32.4.45.27.27.73.24.99-.03.26-.21.52-.63.77-1.25.13-.29.2-.63.3-.94.08-.33.14-.68.21-1.01.13-.89.21-1.81.22-2.74.04-.93.05-1.87.03-2.81l-.06-2.85c-.05-.95.08-1.92.11-2.9.08-1.22.44-1.09,1.09-.13.32.48.74,1.17,1.17,2.02.38.86.65,1.89.77,3.04.2,2.03.29,4.11-.04,6.28-.15,1.08-.39,2.21-.89,3.38-.15.31-.24.57-.45.91-.23.35-.48.69-.73,1.02-.34.31-.72.61-1.08.91-.37.29-.82.43-1.25.54-.89.19-1.84-.02-2.6-.53-.75-.49-1.45-1.41-1.71-1.81-.32-.48-.58-.93-.82-1.34l-.63-1.02c-.06-.15-.18-.3-.36-.24-.08.03-.16.05-.24.17-.04.04-.2.31-.3.5l-.36.63c-1.19,2.07-2.29,4.33-3.87,6.47-.82,1.05-1.72,2.14-3.2,2.92-.73.38-1.67.63-2.62.52-.96-.12-1.75-.48-2.45-1.03-.43-.36-.8-.79-1.03-1.3-.24-.47-.35-.93-.42-1.37-.14-.88-.1-1.66,0-2.42.19-1.49.61-2.92,1.16-4.21.49-1.22.95-2.45,1.35-3.68.39-1.21.73-2.51.78-3.57,0-.15,0-.29-.02-.4l-.02-.11s-.01,0,0-.01c.12-.07.18-.1.24-.13.29-.21.17-.24.14.01-.01.08-.01.15,0,.22,0,.15,0,.11-.01.11,0,0-.04,0-.1.02-.06,0-.3.12-.45.18-.17.07-.34.15-.52.24-.34.16-.7.36-1.05.54-1.43.77-2.89,1.63-4.56,2.26-1.25.46-2.7.85-4.25.53-.38-.08-.76-.18-1.11-.36-.37-.14-.69-.36-1-.59-.63-.43-1.26-1.19-1.47-2.04-.4-1.71.16-3.11.7-4.32.57-1.23,1.29-2.31,2.04-3.35,2.35-3.2,4.91-6.07,7.68-8.77.61-.59,1.2-1.19,1.85-1.76,1.21-1.05,2.06-1.67,2.76-1.98.72-.28,1.24-.3,1.76-.15.24.07.51.1.69.2.3.17.27.54-.02,1.09-.29.55-.81,1.29-1.63,2.06-2.39,2.33-4.8,4.77-7.08,7.32-1.14,1.27-2.22,2.59-3.19,3.93-.94,1.33-1.82,2.77-2.17,3.92-.14.42-.15.76-.12.87.04.12-.04.08.18.27.51.39,1.03.55,1.99.38.93-.17,2.03-.62,3.14-1.19,1.13-.57,2.27-1.25,3.63-1.91l.04.07Z"/><path class="cls-2" d="M432.38,126.88c-.43.07-.86.07-1.29.11-.43.02-.85.07-1.32,0-.92-.04-1.8-.3-2.63-.61-1.65-.67-3.01-1.78-4.09-3.03-.78-.93-1.48-1.91-1.96-3.02-.84-1.92-1.17-4.17-.73-6.23.43-2.07,1.47-3.94,2.89-5.39,1.26-1.28,2.83-2.25,4.52-2.76,1.08-.37,2.23-.46,3.36-.42.56.1,1.12.17,1.64.4l.78.3.72.4c.59.34.46.36-.12.33-.58-.06-1.64-.03-2.73.17-.48,0-.96.11-1.42.16-.46.14-.92.21-1.35.42-.88.31-1.67.84-2.39,1.41-.75.54-1.37,1.23-1.94,1.95-.51.76-.98,1.57-1.26,2.45-.12.26-.14.54-.21.81-.07.27-.1.55-.1.84-.05.57-.04,1.13.08,1.7.2,1.13.67,2.24,1.27,3.25.67,1.1,1.55,2.08,2.58,2.81,1.03.73,2.23,1.14,3.45,1.18,1.59,0,3.19-.4,4.54-1.25,1.06-.6,1.89-1.55,2.58-2.55.68-1.03,1.05-2.23,1.21-3.42.17-1.89-.57-3.67-1.73-4.93-.27-.28-.5-.55-.83-.77-.27-.23-.47-.44-.63-.64-.18-.17-.33-.32-.43-.49-.2-.33-.22-.68-.15-1.16.03-.22.04-.45.09-.66.16-.69,1.07-.82,2.43-.18,1.94,1.05,3.53,3.11,4.15,5.48.63,2.38.3,4.95-.72,7.14-.79,1.62-1.95,3.04-3.36,4.16-1.45,1.07-3.13,1.8-4.87,2.13l-.02-.07Z"/><path class="cls-2" d="M436.25,96.64c.29.26.62.48.96.7.33.23.7.42,1.07.61.27.15.58.19.86.31.99.44,2.03.93,3.13,1.24.48.15.99.21,1.49.27.32.06.64.1.96.17.16.05.31.2.46.3.15.13.32.17.47.26.19.11.15.18-.04.34-.14.11-.28.22-.39.31-.16.14-.36.39-.56.54-.34.13-.69.13-1.03.19-.35.02-.69-.02-1.03-.05-.69-.08-1.37-.22-2.04-.46-.8-.28-1.68-.36-2.52-.64-.46-.15-.9-.35-1.35-.53-.44-.21-.88-.44-1.31-.66-.51-.34-1.04-.62-1.52-1.02-.37-.28-.74-.56-1.06-.92l-.5-.5c-.16-.17-.29-.37-.45-.55-.5-.53-1-1.09-1.43-1.73-.05-.16-.13-.3-.16-.47-.12-.62.04-.86.62-1.12.13-.06.26-.12.39-.17.44-.15.92-.04,1.26.18.25.17.47.34.71.47.19.16.36.31.5.48.12.18.33.3.47.46.15.16.29.32.47.46.24.24.43.52.72.75l.4.37c.15.12.31.22.46.33l-.03.06Z"/><path class="cls-2" d="M446.99,123.33c1.04-4.7,1.63-9.53,1.74-14.34.05-2.41-.02-4.82-.29-7.19-.26-2.37-.69-4.72-1.45-6.87-.56-1.53-1.4-3.04-2.35-3.7-.11-.08-.23-.17-.34-.2-.11-.06-.21-.1-.32-.11-.06-.01-.09-.03-.17-.04h-.29s-.57-.05-.57-.05l-.57-.04-.6.05-1.2.09c-2.87.42-5.75,1.53-8.48,2.9-2.72,1.42-5.31,3.14-7.77,5.02-4.9,3.82-9.31,8.34-12.95,13.44l-1.21,1.7c-.4.57-.75,1.18-1.12,1.76l-1.1,1.78-1.01,1.82c-1.29,2.45-2.39,5.01-3.3,7.61-1.18,3.34-2.02,6.81-2.76,10.3l-1.09,5.26c-.1.44-.16.88-.28,1.32l-.37,1.3c-.26.87-.45,1.75-.77,2.61-.44,1.07-.63,1.53-.66,1.49-.04-.04.03-.58-.1-1.57-.14-.98-.25-2.37-.44-4.06-.09-1.68.07-3.61.39-5.7,1.32-7.34,3.57-14.73,7.36-21.39,3.78-6.57,8.57-12.6,14.36-17.57,3.45-2.98,7.25-5.7,11.42-7.91,1.08-.49,2.11-1.08,3.23-1.48l1.67-.65,1.74-.52c.57-.19,1.18-.29,1.78-.41.6-.12,1.2-.25,1.83-.27.63-.02,1.23-.15,1.89-.06l.96.07.48.04c.18.03.4.09.6.14.88.25,1.62.74,2.18,1.29.59.54,1.01,1.14,1.4,1.74.75,1.21,1.24,2.47,1.66,3.73.82,2.52,1.26,5.07,1.52,7.62.51,5.1.34,10.2-.29,15.24-.81,6.2-2.26,12.29-4.63,18.11-.88,2.21-1.99,4.33-3.18,6.39-1.22,2.05-2.6,3.99-4.07,5.85-2.97,3.7-6.34,7-9.67,10.2-1.32,1.27-2.63,2.53-3.91,3.76-.37.28-.72.6-1.2.63-.46-.01-.91-.2-1.36-.39-1.02-.5-1.43-.78-2.07-1.14-1.18-.7-2.34-1.37-3.5-2.03-2.33-1.32-4.68-2.56-7.08-3.66-1.39-.64-2.78-1.19-4.2-1.75-2.64-1.03-4.41-1.56-5.62-2.06-1.22-.49-1.89-.93-2.41-1.51-.24-.27-.57-.55-.7-.8-.48-.8,2.11-1.23,6.43-.06,3.99,1.11,7.83,2.8,11.52,4.77,1.85.98,3.66,2.05,5.45,3.13.88.55,1.79,1.06,2.66,1.55l.32.17c.11.06.05.02.07.04h.03s.02-.02.04-.01v-.02s0,0,0,0l.16-.16.66-.66,1.33-1.31c.89-.85,1.78-1.71,2.67-2.57,1.77-1.71,3.5-3.44,5.14-5.23,3.22-3.58,6.06-7.43,8.13-11.73.55-1.05.99-2.17,1.47-3.26.41-1.13.86-2.22,1.21-3.39.75-2.3,1.37-4.65,1.88-7.03h.08Z"/><path class="cls-2" d="M237.74,227.36c-2.57,4.77-5.47,9.41-8.99,13.63-1.28,1.54-2.59,3.07-4.08,4.43-2.61,2.4-5.64,4.49-9,5.81-3.33,1.38-6.9,1.96-10.43,2.02-3.14.04-6.29-.33-9.29-1.2-1.9-.61-3.81-1.29-5.55-2.33-.46-.22-.85-.55-1.26-.83-.4-.31-.83-.57-1.2-.92l-1.12-1.01c-.2-.15-.32-.39-.48-.59l-.22-.31-.11-.15s-.07-.01-.03-.1l-.04-.09c-.24-.63-.35-.88-.32-.88.03,0,.24.21.79.38.54.17,1.26.43,2.06.77.4.17.8.39,1.24.59.45.19.9.41,1.35.67,6.45,3.65,14.44,4.24,21.64,2.17,4.39-1.18,8.17-4.24,11.38-7.68,3.55-3.79,6.49-8.21,9.07-12.82,1.59-2.84,3.04-5.78,4.4-8.76l.78-1.71.45-.96c.19-.42.41-.81.64-1.19.29-.29.53-.61.91-.77.38-.08.83.05,1.25.1.42.09.9.25,1.27.36.31.09.61.2.91.3,2.4.82,4.75,1.74,7.06,2.7,3.59,1.51,7.16,2.93,10.56,4.94.74.46,1.5.84,2.21,1.39,1.35.93,2.12,1.79,2.58,2.41.43.69.5,1.24.38,1.78-.06.25-.08.53-.18.72-.17.32-.59.33-1.15.11-.28-.11-.59-.28-.91-.51-.35-.22-.77-.47-1.19-.79-2.57-1.85-5.59-3.41-8.7-4.88-3.11-1.47-6.39-2.78-9.7-3.93-.62-.2-1.23-.43-1.85-.61l-.92-.29c-.21-.06-.16-.05-.16-.05,0,0,0,0,0,0,0,0-.01-.01-.02,0,0,0,0,0-.01,0l-.39.81c-1.14,2.42-2.32,4.9-3.59,7.32l-.08-.03Z"/><path class="cls-2" d="M90.63,421.58h-.28c-.26,0-.5.04-.72.16-.23.08-.43.2-.6.39-.18.17-.31.37-.39.6-.12.22-.17.46-.16.72l.07.5c.09.32.25.59.48.83l.38.29c.29.17.61.25.95.26h.28c.26,0,.5-.04.72-.16.23-.08.43-.2.6-.39.18-.17.31-.37.39-.6.12-.22.17-.46.16-.72l-.07-.5c-.09-.32-.25-.59-.48-.83l-.38-.29c-.29-.17-.61-.25-.95-.26h0Z"/><path class="cls-2" d="M83.01,432.67c2.41,0,2.42-3.75,0-3.75s-2.42,3.75,0,3.75h0Z"/><path class="cls-2" d="M131.29,430.41c2.41,0,2.42-3.75,0-3.75s-2.42,3.75,0,3.75h0Z"/><path class="cls-2" d="M135.91,442.09v.28c0,.26.04.5.16.72.08.23.2.43.39.6.17.18.37.31.6.39.22.12.46.17.72.16l.5-.07c.32-.09.59-.25.83-.48l.29-.38c.17-.29.25-.61.26-.95v-.28c0-.26-.04-.5-.16-.72-.08-.23-.2-.43-.39-.6-.17-.18-.37-.31-.6-.39-.22-.12-.46-.17-.72-.16l-.5.07c-.32.09-.59.25-.83.48l-.29.38c-.17.29-.25.61-.26.95h0Z"/><path class="cls-2" d="M456.03,84.45c.07.26-.25.39-.77.45-.17.02-.63-.1-.68-.18-.11-.16-.21-.32-.28-.48-.04-.09-.11-1.45-.18-1.93-.06-.45-.06-.9.04-1.32l.44-2.6c.03-.19.1-.38.19-.55.33-.61.47-1.26.54-1.93.01-.11.05-.22-.03-.35-.14-.21.19-1.99.32-2.21.32-.52.57-1.07.85-1.6.04-.08.01-.17.17-.22.35-.1.35-.29.41-.45.09-.24.2-.47.36-.69.08-.11.28-.19.45-.27.15-.08.59.08.63.13.12.14.35.1.54.13.06.01.15.03.2.04.1.04.61,1.63.58,1.78,0,0,0,.15-.04.35-.03.2-.06.48-.1.76-.07.56-.14,1.14-.14,1.26,0,.13-.1.23-.18.34-.03.05-.21,1.73-.23,1.8-.12.33-.1.69-.44.97-.07.05-.07.13-.08.19-.11.59-.35,1.14-.56,1.71-.11.29-.15.59-.23.89-.01.05-.06.1-.09.15-.04.06-.09.12-.1.19-.15.71-.44,1.38-.59,2.09-.04.16-.54.86-.56,1.05-.02.11-.47.36-.43.47Z"/><path class="cls-2" d="M460.65,87.86c.01.24-.31.17-.85-.06-.17-.07-.6-.41-.63-.5-.06-.17-.11-.35-.13-.5-.01-.09.41-1.1.55-1.45.13-.35.34-.63.56-.9.45-.55.9-1.11,1.38-1.64.11-.12.23-.21.38-.29.51-.25.9-.62,1.26-1.03.06-.07.14-.12.14-.25-.01-.23,1.1-1.22,1.3-1.27.49-.15.94-.34,1.41-.49.07-.02.1-.1.22-.03.28.16.37.03.5-.03.18-.09.37-.17.59-.2.11-.01.28.07.44.14.14.06.35.46.35.52,0,.17.18.31.29.46.04.05.09.12.11.16.05.11-.41,1.33-.51,1.38,0,0-.08.07-.19.17-.11.1-.26.24-.41.38-.29.29-.6.59-.65.67-.05.08-.17.08-.27.1-.05,0-.86.95-.9.98-.22.14-.34.38-.7.36-.07,0-.1.04-.14.08-.3.32-.69.55-1.05.81-.19.13-.32.32-.48.47-.03.03-.08.03-.12.05-.05.02-.11.04-.14.08-.35.4-.82.71-1.09,1.17-.07.1-.66.38-.72.52-.04.07-.5.04-.5.14Z"/><path class="cls-2" d="M461.66,92.85c-.16.08-.24-.15-.28-.55-.01-.13.05-.51.1-.55.1-.09.2-.18.3-.24.06-.04.92-.11,1.23-.13.29-.03.57,0,.85.06.56.12,1.12.23,1.68.39.12.04.24.09.34.17.36.27.76.43,1.19.55.07.02.13.06.23.02.17-.08,1.26.41,1.37.54.27.31.55.58.81.88.04.04.1.04.09.16-.03.26.09.28.18.36.12.1.23.23.32.38.04.08.03.23.02.36,0,.12-.25.39-.29.41-.12.05-.18.22-.26.35-.03.04-.07.1-.09.13-.07.07-1.09.08-1.15.03-.01-.02-1.1-.53-1.24-.55-.07-.02-.11-.1-.15-.16-.02-.04-.93-.34-.96-.36-.16-.12-.37-.13-.48-.39-.02-.05-.06-.06-.1-.07-.32-.12-.61-.32-.91-.49-.16-.09-.33-.12-.49-.19-.03-.01-.05-.05-.08-.07-.03-.03-.06-.06-.1-.07-.4-.12-.78-.34-1.2-.37-.09-.01-.5-.31-.62-.31-.06,0-.22-.31-.28-.27Z"/></svg>